<svg xmlns="http://www.w3.org/2000/svg" enable-background="new 0 0 2800 2000" viewBox="0 0 2800 2000"><rect width="2000" height="2000" x="400" fill="#fff" fill-rule="evenodd" clip-rule="evenodd" display="none"/><path fill="#d5f0ff" d="M707.58,1359.79c19.22,29.67,207.5,255.11,359.27,257.85c136.87,2.47,181.26-195.94,325.02-181.25
	c107.05,10.94,120.67,124.87,244.7,164.42c121.91,38.87,283.1-8.02,364.25-95.77c422.15-456.43,199.57-1136.24-156.86-1327.9
	c-160.95-86.55-258.86,152.78-596.89,109.99c-203.27-25.73-165.41-147.52-340.55-66.72C703.32,314.16,374.55,845.69,707.58,1359.79z
	" display="none" opacity=".5"/><path fill="#d5f0ff" d="M587.33,748.49c-49.36,109.89-211.8,84.3-322.34,211.34c-114.82,131.96-111.62,350.74,34.04,479.46
		c147.8,130.61,383.27,116.33,498.07,109.37c188.67-11.44,257.31-64.33,405.7-99.6c519.48-123.48,821.66,252.85,1152.63,113.57
		c180.09-75.79,298.22-274.75,258.33-412.1c-68.29-235.1-614.72-261.28-595.04-381.13c16.54-100.72,404.49-95.02,466.04-245.7
		c55.18-135.09-189.54-303.96-359.23-376.2c-78.21-33.3-307.19-134.51-493.56-54.17c-147.45,63.56-140.03,177.47-270.27,208.87
		c-157.02,37.85-222.81-114.46-447.9-120.75c-165.85-4.64-374.22,71.23-420.22,190.39C439.51,511.9,646.86,615.96,587.33,748.49z" opacity=".42"/><path fill="#d5f0ff" d="M642.32,873.93c-46.18,102.81-198.15,78.87-301.57,197.73c-107.42,123.46-104.43,328.14,31.85,448.57
		c138.28,122.2,358.57,108.84,465.98,102.32c176.51-10.71,240.73-60.19,379.57-93.19c486.02-115.52,768.72,236.56,1078.37,106.25
		c168.49-70.91,279.01-257.05,241.68-385.55c-63.89-219.95-575.12-244.45-556.7-356.58c15.48-94.23,378.43-88.9,436.01-229.87
		c51.62-126.39-177.33-284.37-336.08-351.97c-73.17-31.15-287.4-125.85-461.76-50.68c-137.95,59.47-131,166.04-252.86,195.41
		c-146.91,35.41-208.46-107.08-419.04-112.97c-155.16-4.34-350.11,66.64-393.15,178.12C504.03,652.58,698.02,749.94,642.32,873.93z" opacity=".6"/><ellipse cx="1395.17" cy="1873" fill="#dfe6ff" rx="1156.34" ry="63.97"/><path fill="#060352" d="M2260.52,1006.58c-26.38-6.79-67.95,31.88-75.77,70.97c-4.97,24.87,4.57,30.98,5.41,62.01
			c1.39,51.18-43.94,70.27-34.33,92.53c10.29,23.82,79.38,34.6,118.49,7.11C2345.55,1189.12,2308.11,1018.83,2260.52,1006.58z"/><path fill="#ffcdad" d="M1967.89,1293.43c-12.39-2.36-12.17-7.01-25-9.9c-6.68-1.51-22.51-5.15-34.78,3.79
			c-13.21,9.63-18.75,30.55-12.52,37.45c1.45,1.6,3.27,2.16,3.7,2.28c7.27,2.06,11.81-8.39,22.96-11.66
			c9.09-2.66,19.19,0.45,19.91,3.9c0.73,3.53-8.75,5.81-10.54,14.75c-0.45,2.23-0.93,7.27,1.25,8.55
			c4.75,2.8,13.39-17.38,31.62-22.37c16.73-4.57,27.6,8.04,35.1,1.46c6.39-5.6,5.8-20.96-1.05-26.8
			C1992.02,1289.32,1984.75,1296.65,1967.89,1293.43z"/><path fill="#62cbec" d="M2130.96,1299.98c-31.75,13.67-58.13,20.76-83.49,24.23c-25.32,3.47-47.33,3.27-63.66,2.27
			c-2.59-2.08-6.57-5.83-9.61-11.68c-4.65-8.93-4.35-17.39-4.02-20.97c27.55-0.14,83.22-4.15,143.58-36.66
			c60.09-32.37,94.6-76.7,110.24-99.78c2.17-2.23,7.88-7.47,16.87-9.3c1.22-0.25,13.81-2.6,24.43,4.98c0,0,11.59,8.28,13.9,26.03
			C2284.79,1222.05,2184.07,1277.12,2130.96,1299.98z"/><path fill="#ffcdad" d="M1944.3,1698.09c-4.03,16.16-1.1,23.98-6.01,35.47c-6.59,15.41-21.09,22.93-28.78,26.92
			c-42.91,22.27-100.11-12.96-103.52-15.12c72-6.28,95.72-26.67,103.69-44.71c7.52-17,4.16-38.94,16.72-44.66
			c9.89-4.5,23.36,3.92,32.39,10.88C1954.14,1673.44,1947.81,1683.99,1944.3,1698.09z"/><path fill="#0643a3" d="M1943.66,1710.52c-7.6-4.33-19.71,13.83-40.67,23.56c-14.69,6.81-38.21,11.57-75.52-0.83
			c-11.77-6.06-39.24-19.35-45.37-11.93c-4.37,5.3,3.61,19.41,10.06,27.21c16.86,20.4,44.05,22.9,55.03,23.9
			c8.92,0.82,23.67,1.04,41.56-4.24c-2.96,8.38-5.92,16.75-8.89,25.13c0.07,0.46,0.62,3.89,3.62,5.58c2.89,1.63,6.84,0.98,9.51-1.75
			c2.08-3.45,4.63-7.17,7.77-10.97c7.06-8.54,14.6-14.44,20.72-18.42c4.82-2.91,17.41-11.4,22.96-27.49
			C1947.71,1730.82,1950.1,1714.19,1943.66,1710.52z"/><path fill="#ffcdad" d="M2076.17,1725.1c5.41,15.76,12.1,20.73,14.23,33.04c2.85,16.51-5.21,30.71-9.48,38.24
			c-23.84,42.01-90.86,43.54-94.9,43.58c56.88-44.41,65.66-74.41,62.55-93.89c-2.94-18.36-17.66-34.94-10.25-46.57
			c5.84-9.15,21.69-9.4,33.04-8.47C2071.03,1699.06,2071.45,1711.36,2076.17,1725.1z"/><path fill="#153663" d="M2078.71,1731.69c-8.63,1.34-6.79,23.09-17.1,43.74c-7.23,14.47-22.64,32.83-59.48,46.34
			c-12.96,2.58-42.67,9.28-42.84,18.89c-0.12,6.87,14.89,12.94,24.77,15.04c25.85,5.47,48.63-9.49,57.82-15.53
			c7.48-4.91,19.13-13.91,29.81-29.18c2.9,8.4,5.79,16.8,8.69,25.2c0.34,0.32,2.9,2.66,6.3,2.12c3.27-0.52,5.95-3.49,6.34-7.29
			c-0.52-3.99-0.84-8.5-0.75-13.42c0.2-11.08,2.41-20.39,4.72-27.31c1.96-5.28,6.51-19.76,0.83-35.8
			C2094.5,1745.06,2086.03,1730.56,2078.71,1731.69z"/><path fill="#153663" d="M2010.06,1545.05c7.41,59.78,14.81,119.56,22.21,179.34c7.2,1.11,18.24,1.9,31.16-0.89
			c8.72-1.88,15.8-4.86,21.03-7.55c0.56-56.92,1.12-113.84,1.69-170.76c46.4-25.14,92.8-50.28,139.2-75.43
			c-64.81-11.02-129.63-22.04-194.44-33.07C2023.96,1472.81,2017.01,1508.93,2010.06,1545.05z"/><path fill="#0643a3" d="M2326.57,1471.12c-11.58,15.4-25.64,23.8-33.58,27.62c-26.16,12.57-51.31,10.05-61.92,9.1
			c-40.31-3.61-98.26-4.92-175.89-5.21c-29.52,63.66-59.05,127.33-88.59,191c-3.63,1.51-14.65,5.5-28.32,2.16
			c-13.52-3.29-21.42-11.76-23.98-14.76c22.09-81.18,41.6-149.09,56.7-202.46c3.36-11.87,9.71-34.35,29.28-52.84
			c25.5-24.09,58.59-27.38,77.75-28.96c103.5-8.51,242.78-3.32,265.85-2.42C2345.24,1402.72,2350.3,1439.59,2326.57,1471.12z"/><path fill="#62cbec" d="M2225.52,1157.55c-25.79,22.83-12.94,63.89-16.69,137.36c-1.98,38.86-7.99,71.86-14.06,97.18
			c7.41,8.35,25.33,26.15,54.1,33.53c50.12,12.85,90.56-16.87,96.13-21.11c14.92-108.6,4.48-196.1-26.39-230.73
			c-7.35-8.25-22.07-24.87-45.53-28.15C2268.96,1145.05,2243.15,1141.95,2225.52,1157.55z"/><path fill="#f9b58f" d="M2239.29,1125.38c-5.07,13.16-4.87,25.09-4.11,32.26c0.06,9.02,6.6,16.66,15.16,18.06
			c9.16,1.51,18.31-4.51,20.61-13.9c2.98-10.33,5.75-22.3,7.67-35.72c2.23-15.59,2.82-29.68,2.62-41.74
			C2275.93,1086.46,2250.06,1097.44,2239.29,1125.38z"/><path fill="#ffcdad" d="M2232.21,1061.41c-6.64,4.14-9.56,10.18-12.7,16.71c-2.69,5.59-17.7,36.71-1.29,54.09
			c11.36,12.03,32.38,11.74,46.41,4.5c20.96-10.81,33.61-40.85,20.5-61.5C2274.01,1057.69,2247.5,1051.87,2232.21,1061.41z"/><path fill="#fff" d="M2221.96,1123.75c3.7,1.69,9.94,3.87,17.96,3.69c5.77-0.13,10.58-1.45,13.97-2.7
			c-0.84,1.31-5.26,7.93-12.9,9.38C2233.52,1135.54,2225.98,1131.46,2221.96,1123.75z"/><path fill="#66f" d="M2279.43,1145.56"/><path fill="#060352" d="M2199.87,1167.91"/><path fill="#ffcdad" d="M2094.72,1248.97c-9.26-8-12.6-5.07-22.52-13.09c-5.17-4.18-17.47-14.03-18.23-28.67
			c-0.81-15.76,11.43-32.4,20.35-31.77c2.07,0.15,3.59,1.2,3.94,1.46c5.94,4.3,0.89,13.96,5.21,24.36
			c3.52,8.48,11.95,14.31,14.97,12.8c3.08-1.54-0.97-10.09,4.62-16.77c1.39-1.67,4.86-5.03,7.14-4.13
			c4.96,1.95-4.86,20.5,2.47,37.31c6.72,15.42,22.71,16.17,22.35,25.78c-0.31,8.18-12.12,16.87-20.63,15.14
			C2106.27,1269.74,2107.33,1259.87,2094.72,1248.97z"/><path fill="#76dcf4" d="M2328.26,1175.51c25.04,57.32,23.78,119.32-7.04,151c-43.18,44.39-153.88,38.99-227.35-53.18
			c0.09-3.36,0.8-13.8,8.63-23.33c6.21-7.56,13.71-10.66,17.08-11.82c52.18,49.84,109.62,68.1,139.16,48.37
			c2.84-1.9,19.93-13.83,22.87-33.03c4.28-27.99-25.66-44.56-18.19-69.75c2.96-9.99,10.82-18.01,19.52-21.54
			C2296.88,1156.56,2314.71,1161.74,2328.26,1175.51z"/><path fill="#060352" d="M2242.83,1054.66c13.31,5.66,31.2,13.27,39.23,23.49c17.54,22.32-12.65,56.17-22.39,119.65
			c-2.67,17.41-13.74,89.43,15.09,106.61c24.86,14.82,82.14-13.83,106.36-55.82c50.61-87.73-37.47-243.42-107.24-247.56
			c-30.93-1.84-66,28.55-63.06,39.92C2212.26,1046.49,2222.21,1045.89,2242.83,1054.66z"/><g><path fill="#84b2fe" d="M1961.85,1335.3v516.72h-33.55v-394.78c0-9.1-7.38-16.48-16.48-16.48h-193.34
				c-9.1,0-16.48,7.38-16.48,16.48v394.78h-33.55V1335.3H1961.85z"/><rect width="338.52" height="68.96" x="1645.9" y="1317.92" fill="#2c7efe" transform="rotate(-180 1815.155 1352.405)"/><g><path fill="#00aeef" d="M1934.47,1303.87h-132.05c-4.91,0-8.89,3.74-8.89,8.35s3.98,8.35,8.89,8.35h132.05
				c4.91,0,8.89-3.74,8.89-8.35S1939.38,1303.87,1934.47,1303.87z"/><path fill="#00aeef" d="M1869.78,1320.58H1712.5c-7.97-41.58-15.94-83.16-23.9-124.74h159.13c2.53,0,4.7,1.79,5.18,4.27
				l22.05,114.2C1875.58,1317.56,1873.09,1320.58,1869.78,1320.58z"/><path fill="#62cbec" d="M1863.17,1320.58h-152.92c-2.53,0-4.7-1.8-5.18-4.28c-7.29-38.07-14.59-76.13-21.88-114.2
				c-0.62-3.25,1.87-6.27,5.18-6.27h152.75c2.53,0,4.7,1.79,5.18,4.27l22.05,114.2C1868.98,1317.56,1866.48,1320.58,1863.17,1320.58
				z"/><path fill="#fff" d="M1788.72,1248.17c14.42,18.93-6.98,40.32-25.9,25.91C1748.4,1255.16,1769.79,1233.76,1788.72,1248.17z"/></g></g><g><path fill="#84b2fe" d="M2286.07,1580.59c17.93,0,44.43-4.17,70.64-23.57c27.11-20.07,40.31-47.75,50.52-74.67
				c30.64-80.74,46.53-175.04,54.46-239.93c1.02-8.33-4.91-15.9-13.23-16.92c-8.32-1.02-15.9,4.91-16.92,13.23
				c-7.73,63.23-23.15,154.94-52.71,232.84c-7.99,21.05-18.34,44.86-40.19,61.03c-24.07,17.81-48.24,18.44-60.5,17.23l-0.71-0.07
				l-0.71,0l-227.68-1.03c-0.02,0-0.05,0-0.07,0c-8.36,0-15.15,6.76-15.19,15.12c-0.04,8.39,6.73,15.22,15.12,15.26l226.99,1.02
				C2278.84,1580.41,2282.26,1580.59,2286.07,1580.59z"/><path fill="#2c7efe" d="M2059.37,1502.91h232.26c13.48,0,24.41,10.93,24.41,24.41l0,0c0,13.48-10.93,24.41-24.41,24.41h-232.26
			c-13.48,0-24.41-10.93-24.41-24.41l0,0C2034.96,1513.84,2045.89,1502.91,2059.37,1502.91z"/><path fill="#2c7efe" d="M2367.57,1375.17l40.43-157.96c2.35-9.17,12.79-14.42,23.33-11.72l0,0c10.54,2.7,17.17,12.32,14.83,21.48
			l-40.43,157.96c-2.35,9.17-12.79,14.42-23.33,11.72l0,0C2371.86,1393.96,2365.22,1384.34,2367.57,1375.17z"/><path fill="#84b2fe" d="M2225.99,1563.39c-3.64,93.75-7.28,187.5-10.92,281.25c-10.42-1.46-20.84-2.92-31.26-4.38
			c-1.56-90.02-3.11-180.03-4.67-270.05C2194.76,1567.94,2210.37,1565.66,2225.99,1563.39z"/><path fill="#84b2fe" d="M2125.56,1856.39h154.01c3.31,0,5.99-2.68,5.99-5.99v-29.02c0-3.31-2.68-5.99-5.99-5.99h-154.01
			c-3.31,0-5.99,2.68-5.99,5.99v29.02C2119.57,1853.7,2122.25,1856.39,2125.56,1856.39z"/></g><g><rect width="312.56" height="491.05" x="602.78" y="1348.01" fill="#84b2fe" transform="rotate(-180 759.06 1593.538)"/><rect width="244.19" height="491.05" x="671.16" y="1348.01" fill="#b0cdf7" transform="rotate(-180 793.248 1593.538)"/><rect width="222.51" height="105.86" x="682.16" y="1364.18" fill="#dfe6ff" transform="rotate(-180 793.415 1417.112)"/><path fill="#2c7efe" d="M782.58,1417.11c0,5.99,4.85,10.84,10.84,10.84c5.99,0,10.84-4.85,10.84-10.84
			c0-5.99-4.85-10.84-10.84-10.84C787.43,1406.27,782.58,1411.13,782.58,1417.11z"/><rect width="222.51" height="105.86" x="681.99" y="1481.7" fill="#dfe6ff" transform="rotate(-180 793.248 1534.624)"/><path fill="#2c7efe" d="M782.41,1534.62c0,5.99,4.85,10.84,10.84,10.84c5.99,0,10.84-4.85,10.84-10.84
			c0-5.99-4.85-10.84-10.84-10.84C787.26,1523.78,782.41,1528.64,782.41,1534.62z"/><rect width="222.51" height="105.86" x="681.99" y="1599.59" fill="#dfe6ff" transform="rotate(-180 793.248 1652.518)"/><path fill="#2c7efe" d="M782.41,1652.52c0,5.99,4.85,10.84,10.84,10.84c5.99,0,10.84-4.85,10.84-10.84
			c0-5.99-4.85-10.84-10.84-10.84C787.26,1641.68,782.41,1646.53,782.41,1652.52z"/><rect width="222.51" height="105.86" x="681.99" y="1717.86" fill="#dfe6ff" transform="rotate(-180 793.248 1770.792)"/><path fill="#2c7efe" d="M782.41,1770.79c0,5.99,4.85,10.84,10.84,10.84c5.99,0,10.84-4.85,10.84-10.84s-4.85-10.84-10.84-10.84
			C787.26,1759.95,782.41,1764.81,782.41,1770.79z"/></g><path fill="#f8cd12" d="M2571.97,654.93c0-97.38-120.14-176.33-268.34-176.33s-268.34,78.94-268.34,176.33
		s120.14,176.33,268.34,176.33c45.75,0,88.82-7.53,126.51-20.8c-9.69,64.69-51.08,104.39-48.32,107.42
		c4.51,4.95,113.74-103.08,159.78-181.41C2560.99,712.08,2571.97,684.35,2571.97,654.93z" opacity=".5"/><path fill="#8183f1" d="M1910.14,128.71h-483.38c-57.93,0-104.89,46.96-104.89,104.89v243.66c0,57.93,46.96,104.89,104.89,104.89
		h188.78c-0.02,2.83-0.09,5.73-0.23,8.76c-4.66,100.97-71.01,163.83-66.98,168.25c4.83,5.3,99.64-86.48,168.73-177.01h193.08
		c57.93,0,104.89-46.96,104.89-104.89V233.6C2015.03,175.67,1968.07,128.71,1910.14,128.71z" opacity=".5"/><path fill="#f98cb6" d="M1226.48,436.88C1226.48,310.47,1124,208,997.59,208S768.71,310.47,768.71,436.88
		c0,84.41,45.7,158.14,113.71,197.82c51.36,66.27,119.31,131.88,122.85,128c2.65-2.91-35.63-39.84-47.12-100.33
		c12.82,2.23,26,3.4,39.46,3.4C1124,665.77,1226.48,563.29,1226.48,436.88z" opacity=".5"/><path fill="#2c7efe" d="M732.23,412.78c-0.56-31.29-24.89-56.99-56.11-59.25c-144.26-10.45-288.52-20.91-432.77-31.36
		c-37.91-2.75-68.93,29.74-64.44,67.48c8.23,69.14,16.46,138.27,24.69,207.41c4.01,33.65,34.87,57.44,68.43,52.76
		c0.33-0.05,0.66-0.09,0.99-0.14c38.57,47.07,83.09,89.58,85.63,86.79c2.3-2.52-34.13-37.21-39.2-93.27
		c120.93-16.87,241.86-33.75,362.79-50.62c30.3-4.23,52.67-30.41,52.12-60.99C733.65,491.98,732.94,452.38,732.23,412.78z" opacity=".5"/><g><path fill="#16888c" d="M745.97,1242.29c-14.21,8.81-36.66,15.2-44.24,6.71c-7.26-8.13,5.94-22.31-1.89-34.19
					c-8.3-12.59-28.8-5.28-35.31-17.96c-3.82-7.44-1.22-18.66,4.65-22.53c6.2-4.09,14.46,1.05,15.83-1.32
					c2.38-4.12-24.48-16.04-29.25-38.19c-2.8-13.02,2.32-28.22,9.27-29.86c10.02-2.36,21.56,24.02,30.22,20.95
					c5.03-1.78,2.65-11.21,11.12-18.72c4.88-4.33,13.4-8.06,17.22-5.21c7.66,5.73-10.48,32.94-0.69,42.46
					c3.71,3.61,10.87,4.12,15.26,1.7c6.89-3.8,4.72-13.57,10.86-16.37c4.79-2.19,13.22,0.52,16.22,5.85
					c7.12,12.65-20.26,33.25-13.45,46.03c4.49,8.42,18.38,3.26,23.42,11.64C781.96,1204.53,766.34,1229.66,745.97,1242.29z"/><path fill="#0ebaa0" d="M749.41,1243.88c-14.21,8.81-36.66,15.2-44.24,6.71c-7.26-8.13,5.94-22.31-1.89-34.19
					c-8.3-12.59-28.8-5.28-35.31-17.96c-3.82-7.44-1.22-18.66,4.65-22.53c6.2-4.09,14.46,1.05,15.83-1.32
					c2.38-4.12-24.48-16.04-29.25-38.19c-2.8-13.02,2.32-28.22,9.27-29.86c10.02-2.36,21.56,24.02,30.22,20.95
					c5.03-1.78,2.65-11.21,11.12-18.72c4.88-4.33,13.4-8.06,17.22-5.21c7.66,5.73-10.48,32.94-0.69,42.46
					c3.71,3.61,10.87,4.12,15.26,1.7c6.89-3.8,4.72-13.57,10.86-16.37c4.79-2.19,13.22,0.52,16.22,5.85
					c7.12,12.65-20.26,33.25-13.45,46.03c4.49,8.42,18.38,3.26,23.42,11.64C785.4,1206.12,769.78,1231.25,749.41,1243.88z"/><path fill="none" d="M715.13,1116.01"/><path fill="#9cebd5" d="M772.45,1280.95c-0.69,0.26-1.47-0.09-1.74-0.78c-7.13-17.81-15.46-35.32-24.76-52.04
							c-19.08-34.29-42.71-66.18-70.23-94.78c-0.52-0.55-0.51-1.41,0.04-1.94c0.55-0.52,1.41-0.51,1.94,0.04
							c27.68,28.77,51.45,60.85,70.65,95.35c9.36,16.82,17.74,34.43,24.91,52.35c0.28,0.7-0.06,1.5-0.76,1.78
							C772.48,1280.94,772.46,1280.94,772.45,1280.95z"/><path fill="#9cebd5" d="M707.84,1168.75c-0.06,0.02-0.12,0.04-0.19,0.05c-0.6,0.11-1.16-0.29-1.27-0.89
							c-1.46-8.21-1.32-16.5,0.43-24.63c1.59-7.39,4.45-14.38,8.5-20.78c0.32-0.51,1-0.66,1.51-0.34c0.51,0.32,0.66,1,0.34,1.51
							c-3.92,6.18-6.68,12.93-8.21,20.07c-1.69,7.85-1.82,15.85-0.41,23.79C708.64,1168.06,708.33,1168.57,707.84,1168.75z"/><path fill="#9cebd5" d="M722.07,1190.94c-7.41,2.73-15.15,4.04-23.03,3.92c-7.55-0.12-14.97-1.56-22.04-4.29
							c-0.56-0.22-0.85-0.85-0.63-1.42c0.22-0.56,0.85-0.84,1.42-0.63c6.83,2.64,13.99,4.03,21.28,4.15
							c8.03,0.12,15.91-1.3,23.41-4.23c0.57-0.22,1.2,0.06,1.42,0.62c0.22,0.56-0.06,1.2-0.62,1.42
							C722.88,1190.63,722.47,1190.79,722.07,1190.94z"/><path fill="#9cebd5" d="M721.08,1184.56c-0.54,0.2-1.15-0.06-1.38-0.59c-0.24-0.55,0.01-1.2,0.57-1.44
							c8.41-3.65,15.86-8.87,22.13-15.5c6.96-7.37,12.25-16.4,15.31-26.12c0.18-0.58,0.8-0.9,1.37-0.72c0.58,0.18,0.9,0.8,0.72,1.37
							c-3.15,10.04-8.62,19.36-15.8,26.97c-6.47,6.85-14.16,12.24-22.85,16.01C721.12,1184.55,721.1,1184.55,721.08,1184.56z"/><path fill="#9cebd5" d="M730.55,1240.17c-5.38,1.98-11.18,2.98-16.92,2.9c-0.6-0.01-1.09-0.5-1.08-1.11
							c0.01-0.6,0.51-1.09,1.11-1.08c6.18,0.08,12.44-1.15,18.1-3.55c5.21-2.21,9.91-5.36,13.95-9.35c0.43-0.42,1.12-0.42,1.55,0.01
							c0.42,0.43,0.42,1.12-0.01,1.55c-4.24,4.18-9.17,7.48-14.64,9.8C731.94,1239.64,731.25,1239.91,730.55,1240.17z"/><path fill="#9cebd5" d="M745.01,1223.17c-0.48,0.18-1.04-0.01-1.31-0.46c-0.31-0.52-0.15-1.19,0.37-1.5
							c4.15-2.52,10.01-7.09,14.34-14.55c2.39-4.13,4.04-8.63,4.88-13.38c0.11-0.6,0.67-0.99,1.27-0.89
							c0.6,0.11,0.99,0.67,0.89,1.27c-0.89,5.01-2.62,9.75-5.14,14.1c-3.61,6.22-8.83,11.52-15.09,15.32
							C745.14,1223.12,745.08,1223.15,745.01,1223.17z"/><g><path fill="#16888c" d="M774.34,1236.58c-16.58-2.17-38-11.43-38.5-22.8c-0.47-10.89,18.72-13.52,20.17-27.67
					c1.54-15-18.96-22.31-15.97-36.25c1.75-8.18,10.86-15.22,17.86-14.5c7.39,0.76,10.53,9.96,13.1,8.99
					c4.45-1.68-8.8-27.91,1.52-48.08c6.07-11.86,19.66-20.39,26.07-17.25c9.25,4.52,1.49,32.24,10.14,35.35
					c5.02,1.8,9.15-7,20.46-7.46c6.52-0.27,15.48,2.24,16.63,6.86c2.31,9.29-28.96,18.87-27.41,32.44
					c0.59,5.14,5.81,10.07,10.74,10.97c7.74,1.42,12.24-7.52,18.77-5.81c5.1,1.34,9.91,8.77,8.86,14.79
					c-2.49,14.3-36.72,12.93-39.54,27.13c-1.86,9.36,12.17,14.16,10.76,23.83C826.1,1230.12,798.1,1239.69,774.34,1236.58z"/><path fill="#38bec0" d="M775.99,1239.98c-16.58-2.17-38-11.43-38.5-22.8c-0.47-10.89,18.72-13.52,20.17-27.67
					c1.54-15-18.96-22.31-15.97-36.25c1.75-8.18,10.86-15.22,17.86-14.5c7.39,0.76,10.53,9.96,13.1,8.99
					c4.45-1.68-8.8-27.91,1.52-48.08c6.07-11.86,19.66-20.39,26.07-17.25c9.25,4.52,1.5,32.24,10.14,35.35
					c5.02,1.8,9.15-7,20.46-7.46c6.52-0.27,15.48,2.24,16.63,6.86c2.31,9.29-28.96,18.87-27.41,32.44
					c0.59,5.14,5.81,10.07,10.74,10.97c7.74,1.42,12.24-7.52,18.77-5.81c5.1,1.34,9.91,8.77,8.86,14.79
					c-2.49,14.3-36.73,12.93-39.54,27.13c-1.86,9.36,12.17,14.16,10.76,23.83C827.76,1233.53,799.76,1243.1,775.99,1239.98z"/><path fill="none" d="M830.37,1119.29"/><path fill="#9cebd5" d="M770.37,1283.27c-0.7-0.24-1.08-1-0.86-1.7c5.75-18.3,10.38-37.13,13.76-55.96
							c6.93-38.63,8.81-78.27,5.61-117.83c-0.06-0.75,0.5-1.41,1.25-1.48c0.75-0.06,1.41,0.5,1.48,1.25
							c3.23,39.79,1.33,79.67-5.64,118.53c-3.4,18.95-8.06,37.89-13.84,56.3c-0.23,0.72-1,1.12-1.72,0.9
							C770.4,1283.28,770.39,1283.27,770.37,1283.27z"/><path fill="#9cebd5" d="M791.36,1155.51c-0.06-0.02-0.12-0.05-0.18-0.08c-0.53-0.29-0.72-0.96-0.42-1.49
							c4.06-7.29,9.42-13.61,15.92-18.8c5.9-4.72,12.54-8.32,19.73-10.71c0.57-0.19,1.19,0.12,1.38,0.69
							c0.19,0.57-0.12,1.19-0.69,1.38c-6.94,2.31-13.36,5.79-19.06,10.34c-6.27,5.01-11.45,11.12-15.37,18.16
							C792.41,1155.47,791.85,1155.68,791.36,1155.51z"/><path fill="#9cebd5" d="M788.33,1181.69c-7.46-2.58-14.29-6.45-20.32-11.54c-5.78-4.87-10.6-10.68-14.35-17.27
							c-0.3-0.53-0.11-1.19,0.41-1.49c0.53-0.3,1.19-0.11,1.49,0.41c3.62,6.36,8.28,11.97,13.85,16.68
							c6.14,5.18,13.14,9.06,20.81,11.54c0.58,0.19,0.89,0.8,0.71,1.38c-0.19,0.58-0.8,0.89-1.38,0.71
							C789.14,1181.97,788.73,1181.83,788.33,1181.69z"/><path fill="#9cebd5" d="M791.59,1176.12c-0.54-0.19-0.85-0.77-0.7-1.33c0.16-0.58,0.77-0.92,1.35-0.76
							c8.82,2.49,17.89,3.17,26.94,2c10.05-1.3,19.86-4.94,28.38-10.54c0.51-0.33,1.18-0.19,1.52,0.31
							c0.33,0.51,0.19,1.18-0.31,1.52c-8.79,5.78-18.92,9.54-29.3,10.88c-9.35,1.21-18.71,0.51-27.82-2.06
							C791.63,1176.14,791.61,1176.13,791.59,1176.12z"/><path fill="#9cebd5" d="M763.74,1225.18c-5.42-1.87-10.54-4.77-14.94-8.46c-0.46-0.39-0.52-1.08-0.13-1.54
							c0.39-0.46,1.08-0.52,1.54-0.13c4.73,3.97,10.35,6.98,16.26,8.71c5.44,1.59,11.06,2.12,16.72,1.59
							c0.6-0.06,1.14,0.39,1.19,0.99c0.06,0.6-0.39,1.14-0.99,1.19c-5.93,0.55-11.83-0.01-17.54-1.67
							C765.15,1225.64,764.44,1225.42,763.74,1225.18z"/><path fill="#9cebd5" d="M785.69,1221.17c-0.49-0.17-0.8-0.66-0.73-1.19c0.08-0.6,0.64-1.02,1.24-0.93
							c4.81,0.68,12.24,0.84,20.31-2.19c4.47-1.68,8.59-4.13,12.25-7.28c0.46-0.39,1.15-0.34,1.54,0.12
							c0.39,0.46,0.34,1.15-0.12,1.54c-3.86,3.31-8.2,5.89-12.9,7.66c-6.73,2.53-14.12,3.33-21.38,2.31
							C785.83,1221.21,785.76,1221.19,785.69,1221.17z"/></g><g><path fill="#84b2fe" d="M832.7,1287.06c0,35.3-28.61,63.91-63.91,63.91c-4.27,0-8.44-0.42-12.48-1.22
				c-29.32-5.8-51.43-31.66-51.43-62.69c0-6.28,0.91-12.35,2.6-18.09h122.63C831.79,1274.7,832.7,1280.77,832.7,1287.06z"/><path fill="#b0cdf7" d="M821.56,1285.85c0,35.3-28.61,63.91-63.91,63.91c-0.45,0-0.9,0-1.34-0.01
				c-29.32-5.8-51.43-31.66-51.43-62.69c0-6.28,0.91-12.35,2.6-18.09h111.83C820.78,1274.35,821.56,1280.01,821.56,1285.85z"/><path fill="#84b2fe" d="M831.64,1273.79h-125.7c-2.37,0-4.29-1.92-4.29-4.29v-3.48c0-2.37,1.92-4.29,4.29-4.29h125.7
				c2.37,0,4.29,1.92,4.29,4.29v3.48C835.93,1271.87,834.01,1273.79,831.64,1273.79z"/></g></g><g><path fill="#060352" d="M916.21,915.17c-6.71,0.2-24.07-40.02-9.91-67.41c20.19-39.02,101.18-45.88,132.92-13.94
			c22.98,23.12,2.61,48.76,24.48,85.67c31.33,52.87,98.85,40.16,106.41,72.41c8.52,36.36-63.73,108.12-120.25,90.42
			c-33.18-10.39-54.64-48.44-58.57-80.22c-5.63-45.45,23.6-85.17,11.26-93.84c-6.5-4.57-14.09,6.84-31.08,3.8
			c-21.91-3.92-30.02-24.18-41.1-20.72C919.94,894.6,920.97,915.03,916.21,915.17z"/><path fill="#ffcdad" d="M978.82,1756.05c4.16,16.33,10.51,21.89,11.64,34.48c1.51,16.88-7.79,30.53-12.73,37.77
			c-27.55,40.41-95.38,36.44-99.46,36.15c61.13-40.11,72.48-69.64,70.93-89.53c-1.45-18.75-14.96-36.68-6.51-47.79
			c6.65-8.75,22.68-7.7,34.07-5.83C975.78,1729.37,975.19,1741.81,978.82,1756.05z"/><path fill="#0643a3" d="M982.58,1768.51c-8.85,0.21-9.86,22.28-22.94,41.64c-9.17,13.57-27.07,29.97-65.87,38.7
			c-13.36,0.89-44.11,3.72-45.53,13.35c-1.02,6.88,13.26,14.93,22.92,18.32c25.26,8.87,50.12-3.16,60.15-8.01
			c8.16-3.95,21.05-11.45,33.8-25.37c1.81,8.8,3.61,17.61,5.42,26.41c0.3,0.36,2.57,3.04,6.05,2.95c3.35-0.09,6.44-2.72,7.33-6.48
			c0-4.07,0.27-8.63,1.01-13.56c1.66-11.09,5.11-20.14,8.33-26.77c2.66-5.04,9.14-18.97,5.54-35.8
			C996.69,1783.99,990.08,1768.33,982.58,1768.51z"/><path fill="#ffcdad" d="M1118.32,1756.08c4.16,16.33,10.5,21.89,11.63,34.48c1.51,16.88-7.77,30.53-12.7,37.77
			c-27.48,40.4-95.18,36.42-99.26,36.13c61-40.1,72.32-69.62,70.78-89.51c-1.45-18.75-14.94-36.68-6.5-47.79
			c6.64-8.75,22.64-7.7,34-5.83C1115.27,1729.4,1114.69,1741.83,1118.32,1756.08z"/><path fill="#084db2" d="M1122.07,1768.54c-8.83,0.21-9.84,22.27-22.89,41.63c-9.15,13.57-27.01,29.96-65.73,38.69
			c-13.33,0.89-44.02,3.71-45.44,13.34c-1.02,6.88,13.23,14.93,22.88,18.33c25.21,8.88,50.02-3.15,60.03-8
			c8.14-3.95,21.01-11.45,33.73-25.36c1.8,8.81,3.61,17.61,5.41,26.42c0.3,0.37,2.56,3.04,6.04,2.95c3.35-0.09,6.43-2.72,7.32-6.48
			c0-4.07,0.27-8.63,1-13.56c1.66-11.09,5.09-20.13,8.31-26.77c2.65-5.04,9.12-18.97,5.53-35.8
			C1136.16,1784.02,1129.56,1768.36,1122.07,1768.54z"/><path fill="#0643a3" d="M937.28,1280.3c-13.81,47.13-26.15,104.13-31.58,169.38c-10.64,127.8,9.6,234.53,30.14,307.19
			c3.35,1.94,12.73,6.79,25.45,5.8c13.14-1.02,21.86-7.65,24.79-10.1c-12.68-53.59-24.08-134.04-4.31-225.37
			c31.59-145.9,122.72-227.08,87.56-275.61c-18.11-25-65.99-36.17-97.61-18.66C948.92,1245.57,940.26,1269.98,937.28,1280.3z"/><path fill="#084db2" d="M992.24,1289.42c-4.92,48.86-6.59,107.16,0.04,172.3c12.99,127.58,52.48,228.79,86.01,296.44
			c3.7,1.3,13.67,4.25,25.81,1.07c12.87-3.37,20.32-11.56,22.79-14.52c-22.3-50.36-48.27-127.34-45.6-220.75
			c4.28-149.22,78.96-245.74,35.49-287c-22.39-21.25-71.51-23.45-99.38-0.43C997.3,1253.14,993.27,1278.73,992.24,1289.42z"/><path fill="#f98cb6" d="M930.37,1002.11c-25.31,33.95,6.08,79.33,13.89,163.46c4.26,45.82-0.4,83.46-4.45,106.47
			c8.25,7.74,37.69,33.44,82.57,35.54c62.33,2.92,101.69-42.13,106.45-47.78c-8.98-129.65-42.29-228.68-86.49-261.39
			c-10.53-7.79-31.63-23.52-59.66-21.64C977.75,977.1,947.05,979.74,930.37,1002.11z"/><path fill="#ffcdad" d="M950.8,957.98c-1.1,3.8-0.89,19.68,3.27,38.41c2.32,10.44,11.79,17.66,22.07,17.16
			c10.99-0.54,20.1-9.79,20.43-21.25c0.59-20.57,1.98-37.37,0-43.32c-4.28-12.87-11.3-21.72-15.77-26.56
			C976.45,924.71,957.34,935.38,950.8,957.98z"/><path fill="#ffcdad" d="M926.66,885.59c-7.05,2.44-8.45,13.8-10.56,22.53c-1.73,7.15-11.37,46.96,11.97,63.02
			c17.07,11.74,41.65,2.85,54.92-6.34c23.1-16,34.34-48.54,25.09-58.95c-8.31-9.35-26.5,6.62-51.8-4.49
			C940.69,894.52,934.72,882.81,926.66,885.59z"/><path fill="#fff" d="M930.3,960.41c4.71,1.03,12.48,2.02,21.73-0.19c6.66-1.59,11.91-4.32,15.52-6.61
			c-0.65,1.73-4.12,10.5-12.62,14.09C946.64,971.2,936.88,968.34,930.3,960.41z"/><path fill="#66f" d="M990.03,975.14"/><path fill="#ffcdad" d="M764.97,1196.88c-12.91-0.13-13.6,4.51-27.06,4.82c-7.01,0.16-23.64,0.62-34.23-10.64
			c-11.41-12.13-12.9-33.88-5.29-39.46c1.77-1.3,3.71-1.48,4.17-1.52c7.71-0.59,10.24,10.63,20.81,16.06
			c8.62,4.43,19.38,3.36,20.78,0.09c1.43-3.34-7.66-7.47-7.72-16.65c-0.01-2.29,0.48-7.36,2.93-8.19
			c5.32-1.82,10.07,19.82,27.43,28.36c15.92,7.83,29.31-2.47,35.57,5.52c5.33,6.79,1.74,21.85-6.28,26.26
			C788.43,1205.73,782.55,1197.06,764.97,1196.88z"/><path fill="#f17eac" d="M988.32,1024.55c-2.04,21.02-8.02,37.2-14.38,49.26c-49.07,93.03-197.76,87.05-204.73,86.68
			c-2.58,3.05-8.07,10.38-9.7,21.32c-1.28,8.59,0.4,15.56,1.59,19.27c13.08,3.35,159.15,38.34,256.73-55.4
			c34-32.65,50.83-70.1,59.45-96.61c-2.32-21.41-17.87-38.97-38.35-43.56C1020.07,1001.27,1000.17,1008.75,988.32,1024.55z"/></g><g><path fill="#2c7efe" d="M518.43,991.82c9.9,63.15,18.79,129.02,26.33,197.47c5.96,54.12,10.73,106.81,14.48,157.98
			c-11.12-2.34-22.23-4.68-33.35-7.02c-4.68-47.69-9.36-95.37-14.04-143.06c-15.45-66.28-30.91-132.56-46.36-198.85
			C483.13,996.17,500.78,993.99,518.43,991.82z"/><path fill="#153663" d="M555.78,1835.86c31.65,15.89,59.05,2.1,67.79,17.19c4,6.89,2.05,16.29-0.96,21.96
			c-18.49,34.89-130.48,29.79-144.18-5.73c-8.38-21.71,18.32-59.01,40.1-59.2C532.19,1809.96,533.16,1824.51,555.78,1835.86z"/><path fill="#153663" d="M366.55,1779.05c12.94,32.97,42.54,41,38.97,58.07c-1.63,7.8-9.35,13.49-15.38,15.71
			c-37.07,13.61-117-64.98-103.48-100.57c8.27-21.75,53.05-31.68,69.39-17.27C366.29,1744.02,357.3,1755.5,366.55,1779.05z"/><path fill="#0643a3" d="M625.07,1434.73c8.61,15.37,18.57,39.47,11.41,63.94c-2.94,10.06-7.91,17.2-11.41,21.67
				c-31.33,39.99-239.18,241.21-252.77,254.36c-5.82-1.6-18.47-5.92-29.84-17.56c-12.67-12.96-16.38-27.48-17.56-33.35
				c77.23-80.16,154.47-160.32,231.71-240.48c-59.68-115.56-119.36-231.12-179.05-346.68c49.29,24.8,98.58,49.59,147.87,74.39
				C558.64,1285.59,591.86,1360.16,625.07,1434.73z"/><path fill="#0643a3" d="M369.67,1267.62c23.84,61.08,46.82,130.6,65.82,208.01c32.67,133.06,44.72,253.35,47.39,352.82
				c6.16,2.64,18.78,7.09,35.11,5.92c15.97-1.14,27.62-7.1,33.35-10.53c-2.15-104.76-11.99-227-36.86-361.6
				c-20.03-108.37-46.21-205.27-73.72-289.41C417.06,1204.43,393.36,1236.03,369.67,1267.62z"/><path fill="#84b2fe" d="M481.94,944.02c26.53,17.53,34.96,43.88,39.46,57.93c8.55,26.71,6.12,49.74,2.97,79.65
			c-3,28.5-7.15,32.99-8.69,54.58c-2.28,31.92,4.2,58.17,9.74,74.84c-2.59,6.37-20.81,49.08-68.88,65.16
			c-41.57,13.91-76.73-1.71-84.26-5.27c-28.65-84.65-37.06-153.5-39.5-198.96c-2.05-38.07-0.5-69.72,19.28-98.14
			c5.46-7.84,24.95-35.83,62.01-43.03C419.44,929.75,451.67,924.01,481.94,944.02z"/><path fill="#ffcdad" d="M478.28,903.98c1.74,19.44-3.08,35.23-6.81,44.48c-3.51,11.97-15.12,19.65-27.04,18.26
			c-12.76-1.49-22.64-12.97-22.13-26.35c-0.03-14.87,0.84-31.86,3.39-50.45c2.97-21.59,7.55-40.57,12.4-56.54
			C444.35,838.24,474.6,862.71,478.28,903.98z"/><path fill="#ffcdad" d="M515.13,819.82c8.05,8.92,9.8,19.05,11.68,30.01c1.61,9.38,10.6,61.62-20.92,80.32
			c-21.84,12.96-52.71,3.65-70.36-12.95c-26.36-24.79-32.33-74.44-4.28-99.36C455.04,796.69,496.6,799.3,515.13,819.82z"/><path fill="#fff" d="M503.93,916.1c-6.17,0.92-16.29,1.52-28.04-2.14c-8.46-2.63-15-6.61-19.46-9.88
			c0.69,2.28,4.41,13.92,15.07,19.28C481.9,928.61,494.75,925.76,503.93,916.1z"/><path fill="#060352" d="M436.93,836.28c29.1-29.51,88.74,9.92,112.21-16.75c12.69-14.42,9.7-42.11-2.75-60.13
			c-11.6-16.79-31.78-25.71-50.91-24.07c-23.25,2-37.41,18.96-40.71,22.92c-8.1,9.7-5.62,12.88-14.11,23.79
			c-13.77,17.7-25.82,16.42-34.37,27.3c-19.17,24.39,3.89,78.22,13.48,77.48C426.55,886.3,418.14,855.33,436.93,836.28z"/><path fill="#2c7efe" d="M690.52,1035.53c0.22,0,0.44-0.02,0.66-0.07c1.62-0.36,2.63-1.97,2.27-3.58l-17.73-78.63
					c-0.21-0.93-0.84-1.7-1.71-2.08l-33.15-14.65c-1.51-0.67-3.28,0.02-3.95,1.53c-0.67,1.51,0.02,3.28,1.53,3.95l31.77,14.04
					l17.4,77.16C687.91,1034.59,689.15,1035.53,690.52,1035.53z"/><path fill="#dfe6ff" fill-rule="evenodd" d="M664.2,989.75c-5.02,0-9.02,4.2-8.77,9.22c0.37,7.46,0.75,14.92,1.12,22.39
				c0.79,15.93,1.59,31.86,2.38,47.8c0.37,7.5,0.75,15,1.12,22.49c0.23,4.67,4.09,8.34,8.77,8.34h42.63c4.68,0,8.54-3.67,8.77-8.34
				c0-0.03,0-0.06,0-0.08c0.37-7.47,0.74-14.94,1.12-22.41c0.8-15.93,1.59-31.86,2.38-47.8c0.37-7.46,0.74-14.93,1.12-22.39
				c0.25-5.01-3.75-9.22-8.77-9.22H664.2z" clip-rule="evenodd"/><path fill="#fff" fill-rule="evenodd" d="M661.76,994.32c0.33,6.58,0.66,13.17,0.99,19.75c0.79,15.93,1.59,31.86,2.38,47.8
				c0.34,6.7,0.67,13.4,1,20.11c0.3,6.01,5.26,10.73,11.28,10.73h37.86c1.78,0,3.46-0.41,4.96-1.15c0.37-7.47,0.74-14.94,1.12-22.41
				c0.8-15.93,1.59-31.86,2.38-47.8c0.52-10.54,1.05-21.07,1.58-31.61h-62.83C661.94,991.17,661.68,992.71,661.76,994.32z" clip-rule="evenodd"/><path fill="#fff" fill-rule="evenodd" d="M654.97,990.95c0.53-1.62,1.05-3.24,1.58-4.86c0.79-2.45,1.59-4.9,2.38-7.35c0.51-1.58,1.03-3.16,1.54-4.74
				h59.34c0.51,1.58,1.03,3.16,1.54,4.74c0.8,2.45,1.59,4.9,2.38,7.35c0.53,1.62,1.05,3.24,1.58,4.86H654.97z" clip-rule="evenodd"/><path fill="#84b2fe" fill-rule="evenodd" d="M656.54,1021.36c0.79,15.93,1.59,31.86,2.38,47.8h62.41c0.8-15.93,1.59-31.86,2.38-47.8H656.54z" clip-rule="evenodd"/><rect width="79.64" height="10.02" x="650.32" y="985.9" fill="#84b2fe" fill-rule="evenodd" clip-rule="evenodd" transform="rotate(-180 690.136 990.908)"/><path fill="#fff" fill-rule="evenodd" d="M678.8,1050.59c5.03,10.7,14.19,16.99,20.45,14.05c6.26-2.94,7.25-14.01,2.22-24.71
					c-5.03-10.7-14.19-16.99-20.45-14.05C674.76,1028.82,673.77,1039.88,678.8,1050.59z" clip-rule="evenodd"/><path fill="#84b2fe" d="M680.94,1028.39c4.51,3.5,8.92,8.12,7.8,14.25c-0.29,1.7-0.8,3.46-0.85,5.28c0,0.24-0.01,0.49,0,0.73
					c0.01,0.14,0.04,0.79,0.06,0.91c0.03,0.2,0.07,0.52,0.1,0.72c0.33,2.08,1.31,4.01,2.71,5.56c1.65,1.87,3.74,3.2,5.8,4.54
					c0.12,0.08,0.42,0.27,0.55,0.35c0.72,0.46,1.48,0.93,2.2,1.39c-0.54-0.35-1.1-0.7-1.61-1.1c-0.19-0.14-0.59-0.46-0.77-0.6
					c-0.25-0.21-0.49-0.43-0.73-0.65c-0.4-0.36-0.76-0.77-1.13-1.16c-1.03-1.18-1.95-2.55-2.63-3.94c-0.83-1.65-1.44-3.45-1.68-5.27
					c-0.3-2.17,0.32-4.21,0.57-6.42c0.11-0.95,0.12-1.91,0.01-2.87C690.7,1034.44,685.95,1030.39,680.94,1028.39L680.94,1028.39z"/><path fill="#f9b691" d="M645.05,1109.25c6.18,1.35,8.3-4.88,22.31-10.49c7.24-2.9,13.27-4.11,17.19-4.86
			c14.92-2.86,17.04,0.26,24.18-2.55c14.08-5.54,19-22.87,19.65-25.32c1.51-5.63,4.71-17.94-2.18-27.77
			c-6.78-9.68-21.25-13.95-32.75-10.89c-20.21,5.37-15.12,29.05-43.74,49c-7.94,5.54-15.82,8.98-16.65,16.28
			C632.29,1099.52,638.19,1107.74,645.05,1109.25z"/><path fill="#2c7efe" d="M393.32,947.7c38.19,5.07,24.37,116.78,79.86,154.65c27.7,18.91,78.84,23.6,180.89-31.31
			c3.66,2.39,10.8,7.79,15.65,17.39c7.1,14.06,4.41,27.44,3.48,31.31c-80.13,71.42-184.26,85.98-250.47,41.74
			c-60.96-40.72-98.46-137.09-67.1-187.4C357.15,971.66,374.1,945.15,393.32,947.7z"/></g><g><path fill="#62cbec" d="M1232.44,1679.35c52.19-25.98,78.57-203.81,3.19-224.41c-4.91-1.34-32.36-8.84-64.96,6.49
					c-35.12,16.52-54.26,49.23-56.46,52.98C1067.49,1594.28,1179.85,1705.53,1232.44,1679.35z"/><path fill="#bbe6f9" d="M1226.4,1687.17c52.19-25.98,78.57-203.81,3.19-224.4c-4.91-1.34-32.36-8.84-64.96,6.49
					c-35.12,16.52-54.26,49.23-56.46,52.98C1061.46,1602.1,1173.82,1713.35,1226.4,1687.17z"/><path fill="#fff" d="M1256.2,1729.05c0.03-0.02,0.06-0.04,0.08-0.06c1.23-0.9,1.72-2.27,1.09-3.05
							c-28.97-36.48-49.88-78.45-62.13-124.76c-9.8-37.03-14.03-76.86-12.59-118.39c0.04-1.12-1.05-1.69-2.42-1.28
							c-1.38,0.41-2.52,1.66-2.56,2.78c-1.45,41.83,2.81,81.95,12.68,119.24c12.34,46.65,33.4,88.93,62.58,125.66
							C1253.54,1729.96,1254.99,1729.89,1256.2,1729.05z"/><path fill="#fff" d="M1182.57,1549.03c0.47-0.33,0.88-0.75,1.14-1.24c0.66-1.19,0.2-2.26-1.01-2.4
							c-11.16-1.25-20.91-4.56-28.98-9.82c-7.81-5.1-13.71-11.84-17.53-20.02c-0.43-0.92-1.83-1.04-3.14-0.27
							c-1.31,0.77-2.02,2.13-1.6,3.05c4.01,8.59,10.21,15.67,18.42,21.04c8.47,5.54,18.72,9.01,30.45,10.32
							C1181.05,1549.77,1181.88,1549.51,1182.57,1549.03z"/><path fill="#fff" d="M1197.6,1626.99c0.67-0.47,1.2-1.12,1.38-1.8c0.32-1.18-0.51-2-1.85-1.82
							c-12.35,1.63-23.85,1.16-34.18-1.42c-10.01-2.5-18.49-6.87-25.21-12.98c-0.75-0.68-2.3-0.45-3.45,0.53
							c-1.15,0.98-1.48,2.33-0.73,3.01c7.06,6.43,15.98,11.02,26.5,13.64c10.85,2.71,22.94,3.21,35.92,1.49
							C1196.54,1627.57,1197.11,1627.33,1197.6,1626.99z"/><path fill="#fff" d="M1199.31,1575.23c9.45-6.58,18.13-14.03,25.89-22.21c9.56-10.08,17.31-20.86,23.04-32.04
							c0.61-1.19,0.11-2.23-1.13-2.32c-1.23-0.09-2.73,0.8-3.34,1.99c-5.46,10.64-12.83,20.9-21.93,30.49
							c-9.38,9.9-20.18,18.66-32.1,26.04c-1.29,0.8-1.96,2.17-1.48,3.06c0.48,0.89,1.91,0.96,3.2,0.16
							C1194.14,1578.73,1196.76,1577.01,1199.31,1575.23z"/><path fill="#fff" d="M1216,1664.77c0.12-0.08,0.24-0.18,0.36-0.28c11.03-9.6,20.38-20.21,27.78-31.53
							c7.17-10.97,12.2-22.13,14.96-33.19c0.29-1.18-0.56-1.97-1.9-1.77c-1.34,0.2-2.67,1.32-2.97,2.49
							c-2.62,10.52-7.41,21.15-14.24,31.58c-7.04,10.77-15.93,20.86-26.44,30c-1.14,0.99-1.44,2.34-0.66,3
							C1213.59,1665.68,1214.91,1665.53,1216,1664.77z"/><g><path fill="#8bdcef" d="M1272.89,1689.57c44.23,20.17,173.27-56.12,147.03-115.76c-1.71-3.88-11.27-25.61-38.31-38.67
					c-29.14-14.07-60.38-9.3-63.96-8.75C1241.39,1538.05,1228.33,1669.25,1272.89,1689.57z"/><path fill="#d2edf7" d="M1264.66,1689.76c44.23,20.17,173.27-56.12,147.03-115.76c-1.71-3.88-11.27-25.61-38.31-38.67
					c-29.14-14.07-60.38-9.3-63.96-8.75C1233.16,1538.25,1220.1,1669.45,1264.66,1689.76z"/><path fill="#fff" d="M1253.18,1731.05c0.03,0.01,0.06,0.02,0.08,0.02c1.23,0.32,2.37-0.08,2.55-0.9
							c8.41-37.92,24.63-73.5,48.19-105.75c18.84-25.79,42.42-49.44,70.07-70.31c0.75-0.56,0.55-1.57-0.44-2.24
							c-0.99-0.67-2.4-0.76-3.15-0.2c-27.86,21.02-51.6,44.85-70.58,70.82c-23.73,32.49-40.07,68.32-48.54,106.51
							C1251.19,1729.81,1252,1730.71,1253.18,1731.05z"/><path fill="#fff" d="M1331.13,1588.83c0.46,0.13,0.95,0.17,1.4,0.09c1.11-0.2,1.57-1.05,1.02-1.91
							c-5.05-7.89-8.03-15.94-8.85-23.93c-0.8-7.74,0.47-15.1,3.76-21.86c0.37-0.76-0.29-1.73-1.48-2.18
							c-1.18-0.44-2.44-0.19-2.81,0.57c-3.46,7.11-4.79,14.84-3.95,22.98c0.86,8.4,3.99,16.86,9.3,25.15
							C1329.85,1588.25,1330.45,1588.64,1331.13,1588.83z"/><path fill="#fff" d="M1288.52,1639.51c0.65,0.19,1.35,0.19,1.89-0.05c0.93-0.41,1.03-1.38,0.21-2.15
							c-7.54-7.14-13.27-14.84-17.02-22.88c-3.64-7.79-5.26-15.58-4.83-23.15c0.05-0.85-0.91-1.72-2.16-1.96
							c-1.24-0.23-2.28,0.27-2.33,1.11c-0.45,7.95,1.25,16.14,5.07,24.33c3.94,8.45,9.96,16.54,17.89,24.05
							C1287.59,1639.13,1288.04,1639.37,1288.52,1639.51z"/><path fill="#fff" d="M1322.94,1613.44c9.22,2.67,18.6,4.38,27.98,5.11c11.55,0.9,22.6,0.26,32.86-1.9
							c1.09-0.23,1.5-1.1,0.91-1.95c-0.59-0.85-1.95-1.35-3.04-1.12c-9.76,2.05-20.28,2.66-31.26,1.81
							c-11.34-0.88-22.69-3.28-33.72-7.12c-1.2-0.42-2.43-0.13-2.76,0.65c-0.33,0.77,0.38,1.74,1.58,2.16
							C1317.96,1611.93,1320.45,1612.72,1322.94,1613.44z"/><path fill="#fff" d="M1273.71,1671.26c0.12,0.03,0.24,0.06,0.37,0.09c12.02,2.1,23.79,2.59,35.01,1.44
							c10.87-1.11,20.74-3.72,29.35-7.74c0.92-0.43,0.98-1.4,0.15-2.16c-0.83-0.77-2.26-1.04-3.17-0.61
							c-8.19,3.83-17.59,6.3-27.93,7.36c-10.67,1.09-21.88,0.63-33.31-1.37c-1.24-0.22-2.27,0.3-2.29,1.15
							C1271.85,1670.18,1272.65,1670.95,1273.71,1671.26z"/></g><g><path fill="#84b2fe" d="M1340.37,1743.99c0,48.28-39.14,87.43-87.43,87.43c-5.84,0-11.55-0.57-17.07-1.67
				c-40.11-7.94-70.35-43.31-70.35-85.76c0-8.59,1.24-16.9,3.55-24.74h167.75C1339.13,1727.1,1340.37,1735.4,1340.37,1743.99z"/><path fill="#b0cdf7" d="M1325.14,1742.35c0,48.28-39.14,87.43-87.42,87.43c-0.61,0-1.23-0.01-1.84-0.02
				c-40.11-7.94-70.35-43.31-70.35-85.76c0-8.59,1.24-16.9,3.55-24.74h152.98C1324.06,1726.61,1325.14,1734.35,1325.14,1742.35z"/><path fill="#84b2fe" d="M1340.5,1725.85h-175.11c-2.37,0-4.29-1.92-4.29-4.29v-7.92c0-2.37,1.92-4.29,4.29-4.29h175.11
				c2.37,0,4.29,1.92,4.29,4.29v7.92C1344.79,1723.93,1342.87,1725.85,1340.5,1725.85z"/></g></g><g><path fill="#153663" d="M1401.54,1801.26c28.8,20.96,58.25,11.76,64.46,28.17c2.84,7.5-0.63,16.5-4.55,21.64
			c-24.07,31.59-134.36,8.18-142.14-29.32c-4.75-22.91,27.85-55.56,49.5-52.17C1382.38,1771.69,1380.96,1786.29,1401.54,1801.26z"/><path fill="#153663" d="M1583.37,1798.61c30.36,16.09,57.23,3.29,65.39,18.11c3.73,6.77,1.65,15.84-1.39,21.28
			c-18.68,33.45-127.19,26.12-139.73-8.62c-7.66-21.23,19.02-56.85,40.16-56.57C1561.04,1772.99,1561.68,1787.12,1583.37,1798.61z"/><path fill="#04367f" d="M1472.72,1203.8c23.04,14.3,95.55,65.24,128.19,196.48c44.71,179.77-21.9,363.43-31.83,389.91
			c-4.34,2.02-12.37,5.03-22.45,4.47c-13.96-0.77-23.42-7.92-27.08-11.04c59.59-162.73,42.93-267.69,9.93-336.57
			c-55.87-116.61-181.03-176.66-163.05-219.08C1376.75,1203.66,1427.28,1201.23,1472.72,1203.8z"/><path fill="#0643a3" d="M1465.38,1195.97c20.6,54.02,45.02,139.09,42.86,244.61c-3.56,174.14-77.39,300.26-113.63,354.16
			c-4.6,0.26-12.93,0.04-22.18-4.39c-12.82-6.13-19.7-16.64-22.25-21.03c74.44-129.74,86.92-235.47,76.99-317.39
			c-16.47-135.94-98.8-240.69-64.68-272.61C1381.13,1161.88,1424.12,1176.01,1465.38,1195.97z"/><path fill="#ffcdad" d="M1805.56,803.4c1.57-2.28,2.95-4.33,5.34-6.72c5.03-5.02,9.27-6.05,15.69-15.2
			c4.45-6.35,15.08-21.35,11.22-38c-4.16-17.93-23.24-32.65-33.03-29.08c-2.28,0.83-3.64,2.5-3.95,2.9
			c-5.27,6.73,3.49,15.94,2,28.99c-1.22,10.64-8.8,19.88-12.66,19.16c-3.95-0.74-2.16-11.63-10.57-17.32
			c-2.1-1.42-7.06-4.07-9.33-2.34c-4.94,3.78,14.47,23.01,9.24,42.63c-3,11.26-11.69,13.76-9.89,20.4
			c2.42,8.95,20.9,14.48,27.84,8.88C1800.46,815.27,1799.49,812.19,1805.56,803.4z"/><path fill="#8183f1" d="M1442.37,952.16c23.69-35.51,89.89-15.47,148.27-23.53c47.96-6.62,115.39-35.66,189.25-143.12
			c2.45-0.28,10-0.84,17.83,3.71c8.16,4.74,11.39,11.99,12.29,14.23c-16.39,41.89-68.73,157.77-184.08,200.03
			c-64.63,23.68-168.1,30.07-187.81-8.97C1431.54,981.49,1434.54,963.89,1442.37,952.16z"/><path fill="#8183f1" d="M1519.73,1072.64c-1.8,6.15-3.43,10.95-4.92,15.01c-1.12,3.03-2.18,5.9-3.17,8.6v0.01
			c-4.66,12.79-7.76,21.59-8.32,23.03c-2.33,6.09-4.48,16.43-5.48,34.87c-0.08,1.43-0.15,2.9-0.22,4.44
			c-0.32,7.69-0.45,16.66-0.34,27.14v0.01c0.11,10.9,0.49,23.42,1.2,37.83c-13.92,5.31-37.67,12.36-67.64,11.37
			c-35.14-1.16-61.58-12.8-75.36-20.09c-4.68-31.77-6.88-60.78-7.51-86.73c-0.09-3.94-0.16-7.8-0.18-11.59
			c-0.23-33.48,2.1-61.43,4.88-83.15c2.62-20.5,6.01-38.71,13.19-54.75c4.64-10.41,10.89-19.93,19.55-28.53
			c3.31-3.3,11.28-11.22,23.34-17.77c4.51-2.47,9.59-4.73,15.2-6.5c4.07-1.27,8.42-2.28,13.06-2.92c3.17-0.42,6.47-0.68,9.89-0.72
			c2.8-0.03,13.64-0.01,26.8,4.28c0.29,0.08,0.59,0.19,0.89,0.28c9.54,3.22,20.23,8.69,29.9,17.98
			c20.53,19.69,23.72,44.23,25.41,57.33C1533.14,1026.95,1527.3,1046.82,1519.73,1072.64z"/><path fill="#ffcdad" d="M1265.36,1266.92c0.62,2.69,1.21,5.1,1.37,8.47c0.33,7.1-1.77,10.93,0.67,21.84
			c1.7,7.56,5.63,25.52,20.54,33.88c16.06,9,39.79,4.81,43.74-4.84c0.92-2.24,0.6-4.38,0.52-4.88c-1.43-8.43-14.13-8.15-22.78-18.04
			c-7.05-8.07-8.77-19.9-5.64-22.27c3.2-2.42,10.05,6.23,19.92,3.85c2.46-0.59,7.77-2.48,8.01-5.32c0.53-6.2-26.75-4.79-37.73-21.88
			c-6.3-9.81-2.3-17.91-8.42-21.05c-8.25-4.24-24.77,5.7-25.31,14.6C1260.02,1255.17,1262.95,1256.52,1265.36,1266.92z"/><path fill="#fff" d="M1456.37,928.51c19.7,31.69,47.35,86.83,54.82,162.81c2.72,27.68,2.26,53,0.41,74.83
			c-9.29,12.72-18.59,25.44-27.88,38.15c-8.68-12.12-17.37-24.23-26.05-36.35c6.78-17.02,13.52-39.13,16.48-65.24
			c8.43-74.43-19.78-129.87-31.62-150.33C1447.14,944.42,1451.75,936.46,1456.37,928.51z"/><path fill="#8183f1" d="M1280.62,1264.13c6.5-2.35,10.79-6.15,13.03-8.47c-0.96-35.32,2.2-64.66,7.93-89.15
			c5.2-22.2,12.51-40.41,20.76-55.41c7.1-12.95,14.87-23.51,22.64-32.26c28.96-32.63,68.35-52.66,86.92-76.53
			c7.12-9.14,11.17-18.85,10.43-30.05c-0.01-0.08,0-0.17-0.02-0.24c-0.13-1.88-0.4-3.8-0.81-5.74c-0.28-1.4-0.64-2.8-1.07-4.2
			c-2.46-8.06-7.17-15.83-13.96-20.31c-1-0.65-2.03-1.22-3.1-1.73c-4.16-1.94-8.8-2.61-13.8-2.25c-5.24,0.39-10.87,1.92-16.75,4.39
			c-15.33,6.43-32.31,19.18-48.23,34.18c-17.5,16.48-33.72,35.67-45.09,52.22c-10.31,14.99-18.5,30.49-24.93,46.14
			c-10.04,24.4-15.83,49.16-18.8,72.83c-5.93,47.01-0.8,89.83,4.12,117.37C1263.06,1265.76,1271.24,1267.49,1280.62,1264.13z"/><path fill="#fcb490" d="M1465.51,887.97c9.05,18.19,10.86,35.24,11.11,45.56c1.5,12.88-5.86,24.56-17.01,27.58
				c-11.92,3.23-25.15-4.27-29.86-17.41c-5.77-14.39-11.55-31.15-16.46-50.09c-5.7-21.99-8.95-42.04-10.79-59.28
				C1409.96,836.74,1446.3,849.36,1465.51,887.97z"/><path fill="#ffcdad" d="M1461.76,809.85c10.17,4.93,15.26,13.15,20.77,22.04c4.72,7.61,30.99,49.98,10.1,77.41
				c-14.47,19-44.67,21.78-65.91,13.54c-31.73-12.31-54.46-53.49-38.8-85.12C1401.22,810.89,1438.37,798.5,1461.76,809.85z"/><path fill="#060352" d="M1477.66,830.78c0.72-0.77,10.05-11.05,9.73-25.3c-0.39-17.37-14.99-34.62-28.04-34.54
				c-6.59,0.04-7.86,4.47-19.02,10.76c-16.39,9.25-25.8,6.54-39.48,11.62c-2.65,0.98-27.32,11.02-35.23,31.42
				c-13.31,34.31,28.78,77.59,35.32,74.54c5.06-2.36-13.81-31.19-1.15-47.43C1414.76,832.66,1455.44,854.56,1477.66,830.78z"/><path fill="#fff" d="M1489.63,899.85c-5.47,3.23-14.78,7.65-27.25,8.69c-8.98,0.75-16.66-0.51-22.12-1.88
				c1.52,1.89,9.46,11.44,21.56,12.43C1473.64,920.05,1484.67,912.46,1489.63,899.85z"/></g></svg>