<svg width="197" height="28" viewBox="0 0 197 28" fill="none" xmlns="http://www.w3.org/2000/svg">
<g clip-path="url(#clip0_17_43)">
<path d="M23.8406 5.17582C23.8406 7.17037 23.8406 9.16444 23.8406 11.1585C23.8406 12.3742 23.884 13.5986 23.8339 14.8138C23.7484 16.8886 22.8445 18.6721 21.5175 20.2096C20.253 21.6756 18.365 22.7614 16.5844 23.4691C14.2847 24.3835 11.8007 24.7975 9.331 24.7627C7.39948 24.7354 5.43883 24.5015 3.61093 23.8516C2.40093 23.4218 1.03096 22.7867 0.23877 21.7358C1.88331 21.6827 3.84443 21.8733 5.3142 20.9885C2.86124 20.5912 1.37954 18.7824 1.1446 16.3461C1.02714 15.1323 1.1064 13.8817 1.1064 12.665C1.1064 10.4265 1.1064 8.18841 1.1064 5.95034C1.1064 5.43511 1.08635 4.91367 1.16609 4.40322C1.35614 3.18223 2.01367 2.06009 2.98396 1.29465C4.25843 0.289974 5.7029 0.238403 7.23188 0.238403C9.33005 0.238403 11.4277 0.238403 13.5259 0.238403C15.244 0.238403 16.9611 0.238403 18.6787 0.238403C21.4578 0.238403 23.8406 2.29932 23.8406 5.17582Z" fill="#5D42D3"/>
<path d="M9.61918 25.0037L9.3279 25.0018C7.08934 24.9707 5.19315 24.668 3.53047 24.0764C2.4599 23.6958 0.933779 23.054 0.0480011 21.8794C-0.00547983 21.8082 -0.0150296 21.7127 0.0231711 21.6325C0.0618493 21.5523 0.141593 21.4997 0.230887 21.4969C0.538402 21.4868 0.856423 21.4859 1.1797 21.484C2.35628 21.4787 3.56628 21.4735 4.59722 21.0733C2.49857 20.4726 1.1372 18.7584 0.906562 16.3689C0.821565 15.4889 0.838277 14.5859 0.854513 13.7121C0.861198 13.3616 0.867405 13.0121 0.867405 12.6654L0.866451 5.69283C0.863585 5.25926 0.860243 4.8104 0.929959 4.36632C1.12813 3.09424 1.8229 1.90668 2.83569 1.10734C4.13452 0.0830863 5.59474 0 7.23116 0H18.678C21.7068 0 24.0796 2.27389 24.0796 5.17617V11.1589C24.0796 11.5437 24.0839 11.9291 24.0886 12.3149C24.0982 13.1376 24.1073 13.9881 24.0734 14.8242C23.9931 16.7686 23.1943 18.6333 21.6992 20.3657C20.2581 22.036 18.1709 23.096 16.6734 23.6915C14.4821 24.562 12.1089 25.0037 9.61918 25.0037ZM0.751849 21.9644C1.58271 22.8081 2.80084 23.3104 3.68996 23.6266C5.30202 24.1996 7.14807 24.4927 9.33363 24.5238L9.6187 24.5257C12.0483 24.5257 14.3623 24.0959 16.4958 23.2469C17.9436 22.6715 19.9591 21.6502 21.3363 20.0534C22.7592 18.4041 23.5194 16.6378 23.5944 14.8037C23.6283 13.98 23.6192 13.1357 23.6097 12.3197C23.6049 11.9319 23.6006 11.5447 23.6006 11.1579V5.17569C23.6006 2.54081 21.438 0.477029 18.6766 0.477029H7.23116C5.63007 0.477029 4.31215 0.551043 3.13127 1.4817C2.21207 2.20704 1.58176 3.28477 1.40174 4.43938C1.33823 4.84574 1.34109 5.27454 1.34396 5.68949L1.34491 5.94973V12.6644C1.34491 13.014 1.33823 13.3668 1.33202 13.7202C1.31626 14.5807 1.30003 15.4698 1.38216 16.3226C1.61423 18.7312 3.0988 20.3871 5.35216 20.752C5.45101 20.7677 5.52932 20.8436 5.54842 20.942C5.56704 21.0404 5.52263 21.1402 5.43716 21.1917C4.1837 21.9462 2.58882 21.9538 1.18208 21.9601C1.0374 21.9624 0.893669 21.9629 0.751849 21.9644Z" fill="#5D42D3"/>
<path d="M27.3645 27.9443C24.2421 27.9443 21.3288 26.8432 19.6719 25.0139C19.3181 24.6233 19.3477 24.0187 19.7387 23.6649C20.1298 23.3111 20.7339 23.3412 21.0877 23.7318C22.4443 25.2297 25.0735 26.1308 27.7996 26.0262C29.2096 25.9727 30.4746 25.6571 31.4869 25.1246C30.8804 24.9871 30.2902 24.7799 29.7196 24.5039C29.3858 24.342 29.1757 24.002 29.1805 23.6315C29.1858 23.2605 29.4049 22.9257 29.743 22.7734C32.6439 21.465 33.5569 17.4005 32.7394 14.386C32.334 12.8924 30.8943 9.46959 26.303 9.95999C25.773 10.0111 25.3079 9.63529 25.2521 9.11146C25.1967 8.58668 25.5768 8.11634 26.1006 8.06047C31.0471 7.53999 33.7254 10.725 34.583 13.8856C35.4478 17.0729 34.7549 21.0639 32.302 23.3369C32.8015 23.4176 33.3162 23.4376 33.8424 23.3994C34.2168 23.3712 34.5764 23.5675 34.7545 23.8998C34.9331 24.2322 34.8991 24.639 34.6676 24.937C33.2766 26.7305 30.7997 27.8235 27.8731 27.9348C27.7021 27.941 27.5326 27.9443 27.3645 27.9443Z" fill="#5D42D3"/>
<mask id="path-4-outside-1_17_43" maskUnits="userSpaceOnUse" x="41.4389" y="1.61853" width="156" height="25" fill="black">
<rect fill="white" x="41.4389" y="1.61853" width="156" height="25"/>
<path d="M53.2646 3.49866C54.7315 3.49866 56.1055 3.77244 57.3865 4.32009C58.6676 4.86774 59.7189 5.66963 60.5403 6.72578L58.1933 8.51539C56.922 6.93115 55.2499 6.13903 53.1766 6.13903C50.9274 6.13903 49.0742 6.94092 47.617 8.54473C46.1598 10.1485 45.4314 12.1629 45.4314 14.5883C45.4314 16.9353 46.1501 18.8716 47.5877 20.3972C49.0252 21.9227 50.8882 22.6855 53.1766 22.6855C55.4649 22.6855 57.2742 21.7565 58.6041 19.8984L60.9804 21.688C60.159 22.7833 59.0636 23.6635 57.6946 24.3284C56.3255 24.9934 54.8 25.3259 53.1179 25.3259C51.1229 25.3259 49.3136 24.8418 47.6904 23.8737C46.0671 22.9056 44.7859 21.5755 43.8471 19.8838C42.9083 18.192 42.4389 16.4169 42.4389 14.559C42.4389 11.3515 43.4462 8.70608 45.4607 6.6231C47.4752 4.54012 50.0764 3.49866 53.2646 3.49866ZM66.3492 2.61853L66.3493 13.0334H66.4079C66.7796 12.2511 67.381 11.6399 68.2122 11.1998C69.0434 10.7598 69.9676 10.5397 70.9846 10.5397C72.5297 10.5397 73.7571 11.0091 74.6665 11.9479C75.576 12.8867 76.0307 14.1483 76.0307 15.7325V24.7979H73.3903V16.4953C73.3903 15.4196 73.1116 14.5688 72.5542 13.9429C71.9968 13.317 71.2193 13.0041 70.2219 13.0041C68.9897 13.0041 68.041 13.4051 67.3761 14.2069C66.7111 15.0088 66.3688 16.1139 66.3492 17.5221V24.7979H63.7088V2.61853H66.3492ZM81.5462 3.96807C82.0743 3.96807 82.5291 4.15879 82.9105 4.54018C83.2919 4.92157 83.4826 5.37631 83.4826 5.90439C83.4826 6.45203 83.287 6.91167 82.8958 7.28329C82.5046 7.65491 82.0548 7.84071 81.5463 7.84071C80.9986 7.84071 80.539 7.65491 80.1674 7.28329C79.7958 6.91167 79.61 6.45203 79.61 5.90439C79.61 5.35674 79.8056 4.8971 80.1967 4.52548C80.5879 4.15386 81.0377 3.96807 81.5462 3.96807ZM82.8664 10.8918V24.7979H80.226V10.8918H82.8664ZM90.729 6.98985L90.729 10.8918H94.5135V13.1801H90.729V19.8691C90.729 20.7688 90.8561 21.4632 91.1103 21.9521C91.3646 22.441 91.9025 22.6855 92.7239 22.6855C93.5063 22.6855 94.1321 22.5486 94.6015 22.2748V24.6805C94.093 24.9543 93.2911 25.1108 92.1958 25.1499C91.1397 25.1499 90.3231 24.9885 89.7461 24.6658C89.1692 24.3431 88.7486 23.8933 88.4846 23.3163C88.2206 22.7393 88.0885 21.8347 88.0885 20.6025V13.1801H85.0374V10.8917H88.0885V6.98982L90.729 6.98985ZM108.126 3.49866C109.593 3.49866 110.967 3.77244 112.248 4.32009C113.529 4.86774 114.581 5.66963 115.402 6.72578L113.055 8.51539C111.784 6.93115 110.112 6.13903 108.038 6.13903C105.789 6.13903 103.936 6.94092 102.479 8.54473C101.022 10.1485 100.293 12.1629 100.293 14.5883C100.293 16.9353 101.012 18.8716 102.449 20.3972C103.887 21.9227 105.75 22.6855 108.038 22.6855C110.327 22.6855 112.136 21.7565 113.466 19.8984L115.842 21.688C115.021 22.7833 113.925 23.6635 112.556 24.3284C111.187 24.9934 109.662 25.3259 107.98 25.3259C105.985 25.3259 104.175 24.8418 102.552 23.8737C100.929 22.9056 99.6477 21.5755 98.7089 19.8838C97.7701 18.192 97.3007 16.4169 97.3007 14.559C97.3007 11.3515 98.3079 8.70608 100.322 6.6231C102.337 4.54012 104.938 3.49866 108.126 3.49866ZM121.211 2.61853L121.211 13.0334H121.27C121.641 12.2511 122.243 11.6399 123.074 11.1998C123.905 10.7598 124.829 10.5397 125.846 10.5397C127.391 10.5397 128.619 11.0091 129.528 11.9479C130.438 12.8867 130.893 14.1483 130.893 15.7325V24.7979H128.252V16.4953C128.252 15.4196 127.973 14.5688 127.416 13.9429C126.859 13.317 126.081 13.0041 125.084 13.0041C123.851 13.0041 122.903 13.4051 122.238 14.2069C121.573 15.0088 121.231 16.1139 121.211 17.5221V24.7979H118.571V2.61853H121.211ZM140.457 10.5397C142.217 10.5397 143.61 10.9406 144.637 11.7425C145.664 12.5444 146.207 13.6593 146.265 15.087V22.5388C146.265 23.2429 146.305 23.9959 146.383 24.7978H144.036C143.977 24.1719 143.948 23.4678 143.948 22.6855H143.889C143.283 23.5852 142.584 24.2208 141.791 24.5924C140.999 24.964 140.075 25.1498 139.019 25.1498C137.591 25.1498 136.432 24.7684 135.543 24.0057C134.653 23.2429 134.208 22.2356 134.208 20.9839C134.208 19.3996 134.873 18.2016 136.203 17.39C137.533 16.5784 139.41 16.1725 141.835 16.1725H143.801V15.6737C143.801 14.7349 143.493 13.9966 142.877 13.4587C142.261 12.9208 141.454 12.652 140.457 12.652C139.713 12.652 139.063 12.7644 138.506 12.9893C137.948 13.2143 137.288 13.6299 136.525 14.2362L134.941 12.5933C136.447 11.2633 138.286 10.5789 140.457 10.5397ZM136.848 20.7786C136.848 22.2846 137.846 23.0376 139.841 23.0376C141.034 23.0376 141.987 22.6806 142.701 21.9668C143.415 21.2529 143.782 20.2212 143.801 18.8716V18.1089H142.305C140.584 18.1089 139.244 18.3289 138.286 18.769C137.327 19.209 136.848 19.8789 136.848 20.7786ZM153.776 6.98985L153.776 10.8918H157.561V13.1801H153.776V19.8691C153.776 20.7688 153.903 21.4632 154.157 21.9521C154.412 22.441 154.949 22.6855 155.771 22.6855C156.553 22.6855 157.179 22.5486 157.649 22.2748V24.6805C157.14 24.9543 156.338 25.1108 155.243 25.1499C154.187 25.1499 153.37 24.9885 152.793 24.6658C152.216 24.3431 151.796 23.8933 151.532 23.3163C151.268 22.7393 151.136 21.8347 151.136 20.6025V13.1801H148.084V10.8917H151.136V6.98982L153.776 6.98985ZM164.631 6.98985L164.631 10.8918H168.416V13.1801H164.631V19.8691C164.631 20.7688 164.758 21.4632 165.012 21.9521C165.267 22.441 165.804 22.6855 166.626 22.6855C167.408 22.6855 168.034 22.5486 168.504 22.2748V24.6805C167.995 24.9543 167.193 25.1108 166.098 25.1499C165.042 25.1499 164.225 24.9885 163.648 24.6658C163.071 24.3431 162.651 23.8933 162.387 23.3163C162.123 22.7393 161.991 21.8347 161.991 20.6025V13.1801H158.939V10.8917H161.991V6.98982L164.631 6.98985ZM178.185 10.5397C180.317 10.5397 181.975 11.2096 183.158 12.5494C184.341 13.8892 184.943 15.7325 184.962 18.0795V18.813H173.814C173.814 19.9474 174.268 20.9008 175.178 21.6734C176.087 22.446 177.197 22.842 178.508 22.8616C179.955 22.8616 181.226 22.1672 182.322 20.7786L184.317 22.3042C182.83 24.2013 180.776 25.1499 178.156 25.1499C176.024 25.1499 174.307 24.4703 173.007 23.1109C171.706 21.7516 171.036 19.9962 170.997 17.8448C170.997 15.7717 171.667 14.0456 173.007 12.6667C174.347 11.2878 176.073 10.5789 178.185 10.5397ZM182.146 16.7006C182.107 15.3902 181.735 14.3878 181.031 13.6935C180.327 12.9993 179.359 12.652 178.126 12.652C177.305 12.652 176.567 12.8525 175.911 13.2535C175.256 13.6544 174.743 14.1727 174.371 14.8084C174 15.444 173.814 16.0748 173.814 16.7006H182.146ZM194.996 10.5397C195.485 10.5397 195.876 10.5984 196.169 10.7157L196.052 13.5615C195.543 13.4246 195.103 13.3561 194.732 13.3561C192.13 13.3561 190.81 14.8035 190.771 17.6981V24.7979H188.131V10.8918H190.771V13.0334H190.83C191.182 12.2902 191.749 11.6888 192.531 11.2292C193.314 10.7695 194.135 10.5397 194.996 10.5397Z"/>
</mask>
<path d="M53.2646 3.49866C54.7315 3.49866 56.1055 3.77244 57.3865 4.32009C58.6676 4.86774 59.7189 5.66963 60.5403 6.72578L58.1933 8.51539C56.922 6.93115 55.2499 6.13903 53.1766 6.13903C50.9274 6.13903 49.0742 6.94092 47.617 8.54473C46.1598 10.1485 45.4314 12.1629 45.4314 14.5883C45.4314 16.9353 46.1501 18.8716 47.5877 20.3972C49.0252 21.9227 50.8882 22.6855 53.1766 22.6855C55.4649 22.6855 57.2742 21.7565 58.6041 19.8984L60.9804 21.688C60.159 22.7833 59.0636 23.6635 57.6946 24.3284C56.3255 24.9934 54.8 25.3259 53.1179 25.3259C51.1229 25.3259 49.3136 24.8418 47.6904 23.8737C46.0671 22.9056 44.7859 21.5755 43.8471 19.8838C42.9083 18.192 42.4389 16.4169 42.4389 14.559C42.4389 11.3515 43.4462 8.70608 45.4607 6.6231C47.4752 4.54012 50.0764 3.49866 53.2646 3.49866ZM66.3492 2.61853L66.3493 13.0334H66.4079C66.7796 12.2511 67.381 11.6399 68.2122 11.1998C69.0434 10.7598 69.9676 10.5397 70.9846 10.5397C72.5297 10.5397 73.7571 11.0091 74.6665 11.9479C75.576 12.8867 76.0307 14.1483 76.0307 15.7325V24.7979H73.3903V16.4953C73.3903 15.4196 73.1116 14.5688 72.5542 13.9429C71.9968 13.317 71.2193 13.0041 70.2219 13.0041C68.9897 13.0041 68.041 13.4051 67.3761 14.2069C66.7111 15.0088 66.3688 16.1139 66.3492 17.5221V24.7979H63.7088V2.61853H66.3492ZM81.5462 3.96807C82.0743 3.96807 82.5291 4.15879 82.9105 4.54018C83.2919 4.92157 83.4826 5.37631 83.4826 5.90439C83.4826 6.45203 83.287 6.91167 82.8958 7.28329C82.5046 7.65491 82.0548 7.84071 81.5463 7.84071C80.9986 7.84071 80.539 7.65491 80.1674 7.28329C79.7958 6.91167 79.61 6.45203 79.61 5.90439C79.61 5.35674 79.8056 4.8971 80.1967 4.52548C80.5879 4.15386 81.0377 3.96807 81.5462 3.96807ZM82.8664 10.8918V24.7979H80.226V10.8918H82.8664ZM90.729 6.98985L90.729 10.8918H94.5135V13.1801H90.729V19.8691C90.729 20.7688 90.8561 21.4632 91.1103 21.9521C91.3646 22.441 91.9025 22.6855 92.7239 22.6855C93.5063 22.6855 94.1321 22.5486 94.6015 22.2748V24.6805C94.093 24.9543 93.2911 25.1108 92.1958 25.1499C91.1397 25.1499 90.3231 24.9885 89.7461 24.6658C89.1692 24.3431 88.7486 23.8933 88.4846 23.3163C88.2206 22.7393 88.0885 21.8347 88.0885 20.6025V13.1801H85.0374V10.8917H88.0885V6.98982L90.729 6.98985ZM108.126 3.49866C109.593 3.49866 110.967 3.77244 112.248 4.32009C113.529 4.86774 114.581 5.66963 115.402 6.72578L113.055 8.51539C111.784 6.93115 110.112 6.13903 108.038 6.13903C105.789 6.13903 103.936 6.94092 102.479 8.54473C101.022 10.1485 100.293 12.1629 100.293 14.5883C100.293 16.9353 101.012 18.8716 102.449 20.3972C103.887 21.9227 105.75 22.6855 108.038 22.6855C110.327 22.6855 112.136 21.7565 113.466 19.8984L115.842 21.688C115.021 22.7833 113.925 23.6635 112.556 24.3284C111.187 24.9934 109.662 25.3259 107.98 25.3259C105.985 25.3259 104.175 24.8418 102.552 23.8737C100.929 22.9056 99.6477 21.5755 98.7089 19.8838C97.7701 18.192 97.3007 16.4169 97.3007 14.559C97.3007 11.3515 98.3079 8.70608 100.322 6.6231C102.337 4.54012 104.938 3.49866 108.126 3.49866ZM121.211 2.61853L121.211 13.0334H121.27C121.641 12.2511 122.243 11.6399 123.074 11.1998C123.905 10.7598 124.829 10.5397 125.846 10.5397C127.391 10.5397 128.619 11.0091 129.528 11.9479C130.438 12.8867 130.893 14.1483 130.893 15.7325V24.7979H128.252V16.4953C128.252 15.4196 127.973 14.5688 127.416 13.9429C126.859 13.317 126.081 13.0041 125.084 13.0041C123.851 13.0041 122.903 13.4051 122.238 14.2069C121.573 15.0088 121.231 16.1139 121.211 17.5221V24.7979H118.571V2.61853H121.211ZM140.457 10.5397C142.217 10.5397 143.61 10.9406 144.637 11.7425C145.664 12.5444 146.207 13.6593 146.265 15.087V22.5388C146.265 23.2429 146.305 23.9959 146.383 24.7978H144.036C143.977 24.1719 143.948 23.4678 143.948 22.6855H143.889C143.283 23.5852 142.584 24.2208 141.791 24.5924C140.999 24.964 140.075 25.1498 139.019 25.1498C137.591 25.1498 136.432 24.7684 135.543 24.0057C134.653 23.2429 134.208 22.2356 134.208 20.9839C134.208 19.3996 134.873 18.2016 136.203 17.39C137.533 16.5784 139.41 16.1725 141.835 16.1725H143.801V15.6737C143.801 14.7349 143.493 13.9966 142.877 13.4587C142.261 12.9208 141.454 12.652 140.457 12.652C139.713 12.652 139.063 12.7644 138.506 12.9893C137.948 13.2143 137.288 13.6299 136.525 14.2362L134.941 12.5933C136.447 11.2633 138.286 10.5789 140.457 10.5397ZM136.848 20.7786C136.848 22.2846 137.846 23.0376 139.841 23.0376C141.034 23.0376 141.987 22.6806 142.701 21.9668C143.415 21.2529 143.782 20.2212 143.801 18.8716V18.1089H142.305C140.584 18.1089 139.244 18.3289 138.286 18.769C137.327 19.209 136.848 19.8789 136.848 20.7786ZM153.776 6.98985L153.776 10.8918H157.561V13.1801H153.776V19.8691C153.776 20.7688 153.903 21.4632 154.157 21.9521C154.412 22.441 154.949 22.6855 155.771 22.6855C156.553 22.6855 157.179 22.5486 157.649 22.2748V24.6805C157.14 24.9543 156.338 25.1108 155.243 25.1499C154.187 25.1499 153.37 24.9885 152.793 24.6658C152.216 24.3431 151.796 23.8933 151.532 23.3163C151.268 22.7393 151.136 21.8347 151.136 20.6025V13.1801H148.084V10.8917H151.136V6.98982L153.776 6.98985ZM164.631 6.98985L164.631 10.8918H168.416V13.1801H164.631V19.8691C164.631 20.7688 164.758 21.4632 165.012 21.9521C165.267 22.441 165.804 22.6855 166.626 22.6855C167.408 22.6855 168.034 22.5486 168.504 22.2748V24.6805C167.995 24.9543 167.193 25.1108 166.098 25.1499C165.042 25.1499 164.225 24.9885 163.648 24.6658C163.071 24.3431 162.651 23.8933 162.387 23.3163C162.123 22.7393 161.991 21.8347 161.991 20.6025V13.1801H158.939V10.8917H161.991V6.98982L164.631 6.98985ZM178.185 10.5397C180.317 10.5397 181.975 11.2096 183.158 12.5494C184.341 13.8892 184.943 15.7325 184.962 18.0795V18.813H173.814C173.814 19.9474 174.268 20.9008 175.178 21.6734C176.087 22.446 177.197 22.842 178.508 22.8616C179.955 22.8616 181.226 22.1672 182.322 20.7786L184.317 22.3042C182.83 24.2013 180.776 25.1499 178.156 25.1499C176.024 25.1499 174.307 24.4703 173.007 23.1109C171.706 21.7516 171.036 19.9962 170.997 17.8448C170.997 15.7717 171.667 14.0456 173.007 12.6667C174.347 11.2878 176.073 10.5789 178.185 10.5397ZM182.146 16.7006C182.107 15.3902 181.735 14.3878 181.031 13.6935C180.327 12.9993 179.359 12.652 178.126 12.652C177.305 12.652 176.567 12.8525 175.911 13.2535C175.256 13.6544 174.743 14.1727 174.371 14.8084C174 15.444 173.814 16.0748 173.814 16.7006H182.146ZM194.996 10.5397C195.485 10.5397 195.876 10.5984 196.169 10.7157L196.052 13.5615C195.543 13.4246 195.103 13.3561 194.732 13.3561C192.13 13.3561 190.81 14.8035 190.771 17.6981V24.7979H188.131V10.8918H190.771V13.0334H190.83C191.182 12.2902 191.749 11.6888 192.531 11.2292C193.314 10.7695 194.135 10.5397 194.996 10.5397Z" fill="#5D42D3"/>
<path d="M53.2646 3.49866C54.7315 3.49866 56.1055 3.77244 57.3865 4.32009C58.6676 4.86774 59.7189 5.66963 60.5403 6.72578L58.1933 8.51539C56.922 6.93115 55.2499 6.13903 53.1766 6.13903C50.9274 6.13903 49.0742 6.94092 47.617 8.54473C46.1598 10.1485 45.4314 12.1629 45.4314 14.5883C45.4314 16.9353 46.1501 18.8716 47.5877 20.3972C49.0252 21.9227 50.8882 22.6855 53.1766 22.6855C55.4649 22.6855 57.2742 21.7565 58.6041 19.8984L60.9804 21.688C60.159 22.7833 59.0636 23.6635 57.6946 24.3284C56.3255 24.9934 54.8 25.3259 53.1179 25.3259C51.1229 25.3259 49.3136 24.8418 47.6904 23.8737C46.0671 22.9056 44.7859 21.5755 43.8471 19.8838C42.9083 18.192 42.4389 16.4169 42.4389 14.559C42.4389 11.3515 43.4462 8.70608 45.4607 6.6231C47.4752 4.54012 50.0764 3.49866 53.2646 3.49866ZM66.3492 2.61853L66.3493 13.0334H66.4079C66.7796 12.2511 67.381 11.6399 68.2122 11.1998C69.0434 10.7598 69.9676 10.5397 70.9846 10.5397C72.5297 10.5397 73.7571 11.0091 74.6665 11.9479C75.576 12.8867 76.0307 14.1483 76.0307 15.7325V24.7979H73.3903V16.4953C73.3903 15.4196 73.1116 14.5688 72.5542 13.9429C71.9968 13.317 71.2193 13.0041 70.2219 13.0041C68.9897 13.0041 68.041 13.4051 67.3761 14.2069C66.7111 15.0088 66.3688 16.1139 66.3492 17.5221V24.7979H63.7088V2.61853H66.3492ZM81.5462 3.96807C82.0743 3.96807 82.5291 4.15879 82.9105 4.54018C83.2919 4.92157 83.4826 5.37631 83.4826 5.90439C83.4826 6.45203 83.287 6.91167 82.8958 7.28329C82.5046 7.65491 82.0548 7.84071 81.5463 7.84071C80.9986 7.84071 80.539 7.65491 80.1674 7.28329C79.7958 6.91167 79.61 6.45203 79.61 5.90439C79.61 5.35674 79.8056 4.8971 80.1967 4.52548C80.5879 4.15386 81.0377 3.96807 81.5462 3.96807ZM82.8664 10.8918V24.7979H80.226V10.8918H82.8664ZM90.729 6.98985L90.729 10.8918H94.5135V13.1801H90.729V19.8691C90.729 20.7688 90.8561 21.4632 91.1103 21.9521C91.3646 22.441 91.9025 22.6855 92.7239 22.6855C93.5063 22.6855 94.1321 22.5486 94.6015 22.2748V24.6805C94.093 24.9543 93.2911 25.1108 92.1958 25.1499C91.1397 25.1499 90.3231 24.9885 89.7461 24.6658C89.1692 24.3431 88.7486 23.8933 88.4846 23.3163C88.2206 22.7393 88.0885 21.8347 88.0885 20.6025V13.1801H85.0374V10.8917H88.0885V6.98982L90.729 6.98985ZM108.126 3.49866C109.593 3.49866 110.967 3.77244 112.248 4.32009C113.529 4.86774 114.581 5.66963 115.402 6.72578L113.055 8.51539C111.784 6.93115 110.112 6.13903 108.038 6.13903C105.789 6.13903 103.936 6.94092 102.479 8.54473C101.022 10.1485 100.293 12.1629 100.293 14.5883C100.293 16.9353 101.012 18.8716 102.449 20.3972C103.887 21.9227 105.75 22.6855 108.038 22.6855C110.327 22.6855 112.136 21.7565 113.466 19.8984L115.842 21.688C115.021 22.7833 113.925 23.6635 112.556 24.3284C111.187 24.9934 109.662 25.3259 107.98 25.3259C105.985 25.3259 104.175 24.8418 102.552 23.8737C100.929 22.9056 99.6477 21.5755 98.7089 19.8838C97.7701 18.192 97.3007 16.4169 97.3007 14.559C97.3007 11.3515 98.3079 8.70608 100.322 6.6231C102.337 4.54012 104.938 3.49866 108.126 3.49866ZM121.211 2.61853L121.211 13.0334H121.27C121.641 12.2511 122.243 11.6399 123.074 11.1998C123.905 10.7598 124.829 10.5397 125.846 10.5397C127.391 10.5397 128.619 11.0091 129.528 11.9479C130.438 12.8867 130.893 14.1483 130.893 15.7325V24.7979H128.252V16.4953C128.252 15.4196 127.973 14.5688 127.416 13.9429C126.859 13.317 126.081 13.0041 125.084 13.0041C123.851 13.0041 122.903 13.4051 122.238 14.2069C121.573 15.0088 121.231 16.1139 121.211 17.5221V24.7979H118.571V2.61853H121.211ZM140.457 10.5397C142.217 10.5397 143.61 10.9406 144.637 11.7425C145.664 12.5444 146.207 13.6593 146.265 15.087V22.5388C146.265 23.2429 146.305 23.9959 146.383 24.7978H144.036C143.977 24.1719 143.948 23.4678 143.948 22.6855H143.889C143.283 23.5852 142.584 24.2208 141.791 24.5924C140.999 24.964 140.075 25.1498 139.019 25.1498C137.591 25.1498 136.432 24.7684 135.543 24.0057C134.653 23.2429 134.208 22.2356 134.208 20.9839C134.208 19.3996 134.873 18.2016 136.203 17.39C137.533 16.5784 139.41 16.1725 141.835 16.1725H143.801V15.6737C143.801 14.7349 143.493 13.9966 142.877 13.4587C142.261 12.9208 141.454 12.652 140.457 12.652C139.713 12.652 139.063 12.7644 138.506 12.9893C137.948 13.2143 137.288 13.6299 136.525 14.2362L134.941 12.5933C136.447 11.2633 138.286 10.5789 140.457 10.5397ZM136.848 20.7786C136.848 22.2846 137.846 23.0376 139.841 23.0376C141.034 23.0376 141.987 22.6806 142.701 21.9668C143.415 21.2529 143.782 20.2212 143.801 18.8716V18.1089H142.305C140.584 18.1089 139.244 18.3289 138.286 18.769C137.327 19.209 136.848 19.8789 136.848 20.7786ZM153.776 6.98985L153.776 10.8918H157.561V13.1801H153.776V19.8691C153.776 20.7688 153.903 21.4632 154.157 21.9521C154.412 22.441 154.949 22.6855 155.771 22.6855C156.553 22.6855 157.179 22.5486 157.649 22.2748V24.6805C157.14 24.9543 156.338 25.1108 155.243 25.1499C154.187 25.1499 153.37 24.9885 152.793 24.6658C152.216 24.3431 151.796 23.8933 151.532 23.3163C151.268 22.7393 151.136 21.8347 151.136 20.6025V13.1801H148.084V10.8917H151.136V6.98982L153.776 6.98985ZM164.631 6.98985L164.631 10.8918H168.416V13.1801H164.631V19.8691C164.631 20.7688 164.758 21.4632 165.012 21.9521C165.267 22.441 165.804 22.6855 166.626 22.6855C167.408 22.6855 168.034 22.5486 168.504 22.2748V24.6805C167.995 24.9543 167.193 25.1108 166.098 25.1499C165.042 25.1499 164.225 24.9885 163.648 24.6658C163.071 24.3431 162.651 23.8933 162.387 23.3163C162.123 22.7393 161.991 21.8347 161.991 20.6025V13.1801H158.939V10.8917H161.991V6.98982L164.631 6.98985ZM178.185 10.5397C180.317 10.5397 181.975 11.2096 183.158 12.5494C184.341 13.8892 184.943 15.7325 184.962 18.0795V18.813H173.814C173.814 19.9474 174.268 20.9008 175.178 21.6734C176.087 22.446 177.197 22.842 178.508 22.8616C179.955 22.8616 181.226 22.1672 182.322 20.7786L184.317 22.3042C182.83 24.2013 180.776 25.1499 178.156 25.1499C176.024 25.1499 174.307 24.4703 173.007 23.1109C171.706 21.7516 171.036 19.9962 170.997 17.8448C170.997 15.7717 171.667 14.0456 173.007 12.6667C174.347 11.2878 176.073 10.5789 178.185 10.5397ZM182.146 16.7006C182.107 15.3902 181.735 14.3878 181.031 13.6935C180.327 12.9993 179.359 12.652 178.126 12.652C177.305 12.652 176.567 12.8525 175.911 13.2535C175.256 13.6544 174.743 14.1727 174.371 14.8084C174 15.444 173.814 16.0748 173.814 16.7006H182.146ZM194.996 10.5397C195.485 10.5397 195.876 10.5984 196.169 10.7157L196.052 13.5615C195.543 13.4246 195.103 13.3561 194.732 13.3561C192.13 13.3561 190.81 14.8035 190.771 17.6981V24.7979H188.131V10.8918H190.771V13.0334H190.83C191.182 12.2902 191.749 11.6888 192.531 11.2292C193.314 10.7695 194.135 10.5397 194.996 10.5397Z" stroke="#5D42D3" stroke-width="1.2" mask="url(#path-4-outside-1_17_43)"/>
</g>
<defs>
<clipPath id="clip0_17_43">
<rect width="196.169" height="27.9443" fill="white"/>
</clipPath>
</defs>
</svg>
