<svg width="35" height="28" viewBox="0 0 35 28" fill="none" xmlns="http://www.w3.org/2000/svg">
<path d="M23.8406 5.17582C23.8406 7.17037 23.8406 9.16444 23.8406 11.1585C23.8406 12.3742 23.884 13.5986 23.8339 14.8138C23.7484 16.8886 22.8445 18.6721 21.5175 20.2096C20.253 21.6756 18.365 22.7614 16.5844 23.4691C14.2847 24.3835 11.8007 24.7975 9.331 24.7627C7.39948 24.7354 5.43883 24.5015 3.61093 23.8516C2.40093 23.4218 1.03096 22.7867 0.23877 21.7358C1.88331 21.6827 3.84443 21.8733 5.3142 20.9885C2.86124 20.5912 1.37954 18.7824 1.1446 16.3461C1.02714 15.1323 1.1064 13.8817 1.1064 12.665C1.1064 10.4265 1.1064 8.18841 1.1064 5.95034C1.1064 5.43511 1.08635 4.91367 1.16609 4.40322C1.35614 3.18223 2.01367 2.06009 2.98396 1.29465C4.25843 0.289974 5.7029 0.238403 7.23188 0.238403C9.33005 0.238403 11.4277 0.238403 13.5259 0.238403C15.244 0.238403 16.9611 0.238403 18.6787 0.238403C21.4578 0.238403 23.8406 2.29932 23.8406 5.17582Z" fill="#5D42D3"/>
<path d="M9.61918 25.0037L9.3279 25.0018C7.08934 24.9707 5.19315 24.668 3.53047 24.0764C2.4599 23.6958 0.933779 23.054 0.0480011 21.8794C-0.00547983 21.8082 -0.0150296 21.7127 0.0231711 21.6325C0.0618493 21.5523 0.141593 21.4997 0.230887 21.4969C0.538402 21.4868 0.856423 21.4859 1.1797 21.484C2.35628 21.4787 3.56628 21.4735 4.59722 21.0733C2.49857 20.4726 1.1372 18.7584 0.906562 16.3689C0.821565 15.4889 0.838277 14.5859 0.854513 13.7121C0.861198 13.3616 0.867405 13.0121 0.867405 12.6654L0.866451 5.69283C0.863585 5.25926 0.860243 4.8104 0.929959 4.36632C1.12813 3.09424 1.8229 1.90668 2.83569 1.10734C4.13452 0.0830863 5.59474 0 7.23116 0H18.678C21.7068 0 24.0796 2.27389 24.0796 5.17617V11.1589C24.0796 11.5437 24.0839 11.9291 24.0886 12.3149C24.0982 13.1376 24.1073 13.9881 24.0734 14.8242C23.9931 16.7686 23.1943 18.6333 21.6992 20.3657C20.2581 22.036 18.1709 23.096 16.6734 23.6915C14.4821 24.562 12.1089 25.0037 9.61918 25.0037ZM0.751849 21.9644C1.58271 22.8081 2.80084 23.3104 3.68996 23.6266C5.30202 24.1996 7.14807 24.4927 9.33363 24.5238L9.6187 24.5257C12.0483 24.5257 14.3623 24.0959 16.4958 23.2469C17.9436 22.6715 19.9591 21.6502 21.3363 20.0534C22.7592 18.4041 23.5194 16.6378 23.5944 14.8037C23.6283 13.98 23.6192 13.1357 23.6097 12.3197C23.6049 11.9319 23.6006 11.5447 23.6006 11.1579V5.17569C23.6006 2.54081 21.438 0.477029 18.6766 0.477029H7.23116C5.63007 0.477029 4.31215 0.551043 3.13127 1.4817C2.21207 2.20704 1.58176 3.28477 1.40174 4.43938C1.33823 4.84574 1.34109 5.27454 1.34396 5.68949L1.34491 5.94973V12.6644C1.34491 13.014 1.33823 13.3668 1.33202 13.7202C1.31626 14.5807 1.30003 15.4698 1.38216 16.3226C1.61423 18.7312 3.0988 20.3871 5.35216 20.752C5.45101 20.7677 5.52932 20.8436 5.54842 20.942C5.56704 21.0404 5.52263 21.1402 5.43716 21.1917C4.1837 21.9462 2.58882 21.9538 1.18208 21.9601C1.0374 21.9624 0.893669 21.9629 0.751849 21.9644Z" fill="#5D42D3"/>
<path d="M27.3645 27.9443C24.2421 27.9443 21.3288 26.8432 19.6719 25.0139C19.3181 24.6233 19.3477 24.0187 19.7387 23.6649C20.1298 23.3111 20.7339 23.3412 21.0877 23.7318C22.4443 25.2297 25.0735 26.1308 27.7996 26.0262C29.2096 25.9727 30.4746 25.6571 31.4869 25.1246C30.8804 24.9871 30.2902 24.7799 29.7196 24.5039C29.3858 24.342 29.1757 24.002 29.1805 23.6315C29.1858 23.2605 29.4049 22.9257 29.743 22.7734C32.6439 21.465 33.5569 17.4005 32.7394 14.386C32.334 12.8924 30.8943 9.46959 26.303 9.95999C25.773 10.0111 25.3079 9.63529 25.2521 9.11146C25.1967 8.58668 25.5768 8.11634 26.1006 8.06047C31.0471 7.53999 33.7254 10.725 34.583 13.8856C35.4478 17.0729 34.7549 21.0639 32.302 23.3369C32.8015 23.4176 33.3162 23.4376 33.8424 23.3994C34.2168 23.3712 34.5764 23.5675 34.7545 23.8998C34.9331 24.2322 34.8991 24.639 34.6676 24.937C33.2766 26.7305 30.7997 27.8235 27.8731 27.9348C27.7021 27.941 27.5326 27.9443 27.3645 27.9443Z" fill="#5D42D3"/>
</svg>
